M48
; DRILL file {KiCad 7.0.7} date Tue 26 Sep 2023 12:20:44 PM EDT
; FORMAT={-:-/ absolute / metric / decimal}
; #@! TF.CreationDate,2023-09-26T12:20:44-04:00
; #@! TF.GenerationSoftware,Kicad,Pcbnew,7.0.7
; #@! TF.FileFunction,Plated,1,4,PTH
FMAT,2
METRIC
; #@! TA.AperFunction,Plated,PTH,ViaDrill
T1C0.300
; #@! TA.AperFunction,Plated,PTH,ViaDrill
T2C0.400
; #@! TA.AperFunction,Plated,PTH,ComponentDrill
T3C0.500
; #@! TA.AperFunction,Plated,PTH,ComponentDrill
T4C1.000
; #@! TA.AperFunction,Plated,PTH,ComponentDrill
T5C3.200
%
G90
G05
T1
X118.9Y-95.85
X119.85Y-98.0
X120.65Y-94.1
X124.35Y-101.0
X125.15Y-99.15
X125.15Y-107.25
X125.75Y-106.7
X126.425Y-106.12
X126.65Y-99.55
X127.2Y-117.4
X127.8Y-109.95
X127.8Y-111.2
X127.8Y-112.55
X128.8Y-102.55
X129.95Y-103.05
X131.55Y-103.05
X131.8Y-95.85
X132.2Y-95.0
X132.6Y-94.2
X133.05Y-101.25
X133.15Y-100.35
X133.5Y-108.75
X133.8Y-104.45
X133.8Y-110.1
X134.35Y-103.5
X136.15Y-92.75
X138.05Y-97.45
X138.55Y-98.15
X138.65Y-96.8
X139.15Y-85.8
X139.4Y-94.95
X140.15Y-85.8
T2
X114.6Y-82.65
X116.6Y-82.65
X118.6Y-82.65
X121.149Y-101.45
X121.149Y-103.85
X121.65Y-97.1
X122.4Y-84.1
X123.2Y-106.75
X123.55Y-110.2
X124.0Y-83.6
X124.2Y-90.3
X124.25Y-106.8
X124.4Y-96.15
X124.5Y-109.2
X125.0Y-125.85
X125.25Y-121.25
X125.4Y-90.3
X126.95Y-74.05
X127.8Y-77.8
X129.5Y-125.85
X129.6Y-77.8
X129.8Y-75.5
X130.65Y-121.2
X130.691Y-108.709
X132.05Y-75.455
X132.409Y-108.591
X134.0Y-77.75
X134.1Y-85.5
X134.9Y-74.0
X135.4Y-81.0
X135.7Y-125.8
X135.948Y-101.002
X136.0Y-121.25
X136.3Y-103.3
X137.1Y-84.85
X137.3Y-96.15
X137.55Y-92.95
X137.85Y-79.4
X137.9Y-85.75
X138.7Y-95.85
X138.95Y-79.4
X139.5Y-77.75
X139.65Y-81.45
X140.25Y-96.35
X140.25Y-125.85
X140.3Y-105.2
X140.3Y-114.0
X140.95Y-86.9
X141.9Y-86.9
X142.05Y-95.65
X142.15Y-104.45
X142.35Y-113.25
X142.8Y-80.3
X144.45Y-84.55
X145.0Y-95.85
X145.15Y-104.45
X145.2Y-113.2
X145.25Y-86.8
X145.335Y-94.708
X145.45Y-121.35
X146.2Y-95.65
X146.65Y-86.85
X146.85Y-104.55
X147.05Y-114.0
X147.75Y-112.544
X147.8Y-103.95
T3
X113.507Y-77.42
X113.507Y-126.42
X114.21Y-75.723
X114.21Y-79.117
X114.21Y-124.723
X114.21Y-128.117
X115.907Y-75.02
X115.907Y-79.82
X115.907Y-124.02
X115.907Y-128.82
X117.605Y-75.723
X117.605Y-79.117
X117.605Y-124.723
X117.605Y-128.117
X118.307Y-77.42
X118.307Y-126.42
X175.507Y-77.42
X175.507Y-126.42
X176.21Y-75.723
X176.21Y-79.117
X176.21Y-124.723
X176.21Y-128.117
X177.907Y-75.02
X177.907Y-79.82
X177.907Y-124.02
X177.907Y-128.82
X179.605Y-75.723
X179.605Y-79.117
X179.605Y-124.723
X179.605Y-128.117
X180.308Y-77.42
X180.308Y-126.42
T4
X114.235Y-90.485
X114.235Y-93.025
X114.235Y-95.565
X114.235Y-98.105
X114.235Y-100.645
X114.235Y-103.185
X114.235Y-105.725
X114.235Y-108.265
X114.235Y-110.805
X114.235Y-113.345
X116.775Y-90.485
X116.775Y-93.025
X116.775Y-95.565
X116.775Y-98.105
X116.775Y-100.645
X116.775Y-103.185
X116.775Y-105.725
X116.775Y-108.265
X116.775Y-110.805
X116.775Y-113.345
X154.107Y-84.96
X154.107Y-87.5
X154.107Y-90.04
X154.107Y-92.58
X154.107Y-95.12
X154.107Y-97.66
X154.107Y-100.2
X154.107Y-102.74
X154.107Y-105.28
X154.107Y-107.82
X154.107Y-110.36
X154.107Y-112.9
X154.107Y-115.44
X154.107Y-117.98
X154.107Y-120.52
X154.107Y-123.06
X169.347Y-84.96
X169.347Y-87.5
X169.347Y-90.04
X169.347Y-92.58
X169.347Y-95.12
X169.347Y-97.66
X169.347Y-100.2
X169.347Y-102.74
X169.347Y-105.28
X169.347Y-107.82
X169.347Y-110.36
X169.347Y-112.9
X169.347Y-115.44
X169.347Y-117.98
X169.347Y-120.52
X169.347Y-123.06
T5
X115.907Y-77.42
X115.907Y-126.42
X177.907Y-77.42
X177.907Y-126.42
T3
X128.082Y-74.38G85X128.082Y-73.68
G05
X133.732Y-74.38G85X133.732Y-73.68
G05
T0
M30
