G04 #@! TF.GenerationSoftware,KiCad,Pcbnew,7.0.7*
G04 #@! TF.CreationDate,2023-09-26T12:49:17-04:00*
G04 #@! TF.ProjectId,programmer,70726f67-7261-46d6-9d65-722e6b696361,rev?*
G04 #@! TF.SameCoordinates,Original*
G04 #@! TF.FileFunction,Paste,Top*
G04 #@! TF.FilePolarity,Positive*
%FSLAX46Y46*%
G04 Gerber Fmt 4.6, Leading zero omitted, Abs format (unit mm)*
G04 Created by KiCad (PCBNEW 7.0.7) date 2023-09-26 12:49:17*
%MOMM*%
%LPD*%
G01*
G04 APERTURE LIST*
G04 Aperture macros list*
%AMRoundRect*
0 Rectangle with rounded corners*
0 $1 Rounding radius*
0 $2 $3 $4 $5 $6 $7 $8 $9 X,Y pos of 4 corners*
0 Add a 4 corners polygon primitive as box body*
4,1,4,$2,$3,$4,$5,$6,$7,$8,$9,$2,$3,0*
0 Add four circle primitives for the rounded corners*
1,1,$1+$1,$2,$3*
1,1,$1+$1,$4,$5*
1,1,$1+$1,$6,$7*
1,1,$1+$1,$8,$9*
0 Add four rect primitives between the rounded corners*
20,1,$1+$1,$2,$3,$4,$5,0*
20,1,$1+$1,$4,$5,$6,$7,0*
20,1,$1+$1,$6,$7,$8,$9,0*
20,1,$1+$1,$8,$9,$2,$3,0*%
%AMFreePoly0*
4,1,9,1.050000,0.350000,0.550000,0.000000,0.550000,-0.400000,0.800000,-0.650000,0.800000,-0.800000,-1.050000,-0.800000,-1.050000,0.800000,1.050000,0.800000,1.050000,0.350000,1.050000,0.350000,$1*%
%AMFreePoly1*
4,1,9,1.050000,-0.800000,-0.800000,-0.800000,-0.800000,-0.650000,-0.550000,-0.400000,-0.550000,0.000000,-1.050000,0.350000,-1.050000,0.800000,1.050000,0.800000,1.050000,-0.800000,1.050000,-0.800000,$1*%
G04 Aperture macros list end*
%ADD10RoundRect,0.200000X0.275000X-0.200000X0.275000X0.200000X-0.275000X0.200000X-0.275000X-0.200000X0*%
%ADD11RoundRect,0.100000X-0.637500X-0.100000X0.637500X-0.100000X0.637500X0.100000X-0.637500X0.100000X0*%
%ADD12RoundRect,0.225000X0.225000X0.250000X-0.225000X0.250000X-0.225000X-0.250000X0.225000X-0.250000X0*%
%ADD13RoundRect,0.140000X0.140000X0.170000X-0.140000X0.170000X-0.140000X-0.170000X0.140000X-0.170000X0*%
%ADD14RoundRect,0.140000X-0.140000X-0.170000X0.140000X-0.170000X0.140000X0.170000X-0.140000X0.170000X0*%
%ADD15RoundRect,0.243750X-0.243750X-0.456250X0.243750X-0.456250X0.243750X0.456250X-0.243750X0.456250X0*%
%ADD16RoundRect,0.140000X0.170000X-0.140000X0.170000X0.140000X-0.170000X0.140000X-0.170000X-0.140000X0*%
%ADD17R,1.400000X0.800000*%
%ADD18R,0.800000X2.000000*%
%ADD19RoundRect,0.140000X-0.170000X0.140000X-0.170000X-0.140000X0.170000X-0.140000X0.170000X0.140000X0*%
%ADD20RoundRect,0.135000X-0.135000X-0.185000X0.135000X-0.185000X0.135000X0.185000X-0.135000X0.185000X0*%
%ADD21RoundRect,0.150000X-0.150000X0.512500X-0.150000X-0.512500X0.150000X-0.512500X0.150000X0.512500X0*%
%ADD22R,2.000000X2.400000*%
%ADD23RoundRect,0.243750X-0.456250X0.243750X-0.456250X-0.243750X0.456250X-0.243750X0.456250X0.243750X0*%
%ADD24RoundRect,0.200000X0.200000X0.275000X-0.200000X0.275000X-0.200000X-0.275000X0.200000X-0.275000X0*%
%ADD25R,0.400000X1.350000*%
%ADD26FreePoly0,180.000000*%
%ADD27R,1.900000X1.900000*%
%ADD28FreePoly1,180.000000*%
%ADD29RoundRect,0.225000X-0.225000X-0.250000X0.225000X-0.250000X0.225000X0.250000X-0.225000X0.250000X0*%
%ADD30RoundRect,0.075000X0.075000X-0.700000X0.075000X0.700000X-0.075000X0.700000X-0.075000X-0.700000X0*%
%ADD31RoundRect,0.075000X0.700000X-0.075000X0.700000X0.075000X-0.700000X0.075000X-0.700000X-0.075000X0*%
%ADD32RoundRect,0.135000X0.135000X0.185000X-0.135000X0.185000X-0.135000X-0.185000X0.135000X-0.185000X0*%
%ADD33RoundRect,0.135000X0.765000X-0.540000X0.765000X0.540000X-0.765000X0.540000X-0.765000X-0.540000X0*%
%ADD34RoundRect,0.225000X-0.250000X0.225000X-0.250000X-0.225000X0.250000X-0.225000X0.250000X0.225000X0*%
G04 APERTURE END LIST*
D10*
X119500000Y-84275000D03*
X119500000Y-82625000D03*
D11*
X140845000Y-106695000D03*
X140845000Y-107345000D03*
X140845000Y-107995000D03*
X140845000Y-108645000D03*
X140845000Y-109295000D03*
X140845000Y-109945000D03*
X140845000Y-110595000D03*
X140845000Y-111245000D03*
X140845000Y-111895000D03*
X140845000Y-112545000D03*
X146570000Y-112545000D03*
X146570000Y-111895000D03*
X146570000Y-111245000D03*
X146570000Y-110595000D03*
X146570000Y-109945000D03*
X146570000Y-109295000D03*
X146570000Y-108645000D03*
X146570000Y-107995000D03*
X146570000Y-107345000D03*
X146570000Y-106695000D03*
D12*
X139482500Y-84820000D03*
X137932500Y-84820000D03*
D13*
X141987500Y-87620000D03*
X141027500Y-87620000D03*
D14*
X145427500Y-114020000D03*
X146387500Y-114020000D03*
D15*
X122970000Y-119220000D03*
X124845000Y-119220000D03*
D16*
X121700000Y-85080000D03*
X121700000Y-84120000D03*
D17*
X134345000Y-128290000D03*
X134345000Y-130500000D03*
X141645000Y-128290000D03*
X141645000Y-130500000D03*
D18*
X135745000Y-127368000D03*
X138745000Y-127368000D03*
X140245000Y-127368000D03*
D19*
X136307500Y-101640000D03*
X136307500Y-102600000D03*
D20*
X133597500Y-81020000D03*
X134617500Y-81020000D03*
D21*
X139657500Y-80482500D03*
X138707500Y-80482500D03*
X137757500Y-80482500D03*
X137757500Y-82757500D03*
X139657500Y-82757500D03*
D11*
X140845000Y-97895000D03*
X140845000Y-98545000D03*
X140845000Y-99195000D03*
X140845000Y-99845000D03*
X140845000Y-100495000D03*
X140845000Y-101145000D03*
X140845000Y-101795000D03*
X140845000Y-102445000D03*
X140845000Y-103095000D03*
X140845000Y-103745000D03*
X146570000Y-103745000D03*
X146570000Y-103095000D03*
X146570000Y-102445000D03*
X146570000Y-101795000D03*
X146570000Y-101145000D03*
X146570000Y-100495000D03*
X146570000Y-99845000D03*
X146570000Y-99195000D03*
X146570000Y-98545000D03*
X146570000Y-97895000D03*
D10*
X115500000Y-84275000D03*
X115500000Y-82625000D03*
D22*
X126157500Y-112220000D03*
X122457500Y-112220000D03*
D23*
X143307500Y-82682500D03*
X143307500Y-84557500D03*
D13*
X141987500Y-105220000D03*
X141027500Y-105220000D03*
D19*
X136307500Y-94340000D03*
X136307500Y-95300000D03*
D13*
X123307500Y-109470000D03*
X122347500Y-109470000D03*
D24*
X127912500Y-125000000D03*
X126262500Y-125000000D03*
D12*
X131882500Y-107820000D03*
X130332500Y-107820000D03*
D24*
X138687500Y-125000000D03*
X137037500Y-125000000D03*
D13*
X141987500Y-114020000D03*
X141027500Y-114020000D03*
D20*
X134197500Y-121220000D03*
X135217500Y-121220000D03*
D25*
X132207500Y-76705000D03*
X131557500Y-76705000D03*
X130907500Y-76705000D03*
X130257500Y-76705000D03*
X129607500Y-76705000D03*
D26*
X134007500Y-76580000D03*
D27*
X132107500Y-74030000D03*
X129707500Y-74030000D03*
D28*
X127807500Y-76580000D03*
D23*
X134107500Y-82682500D03*
X134107500Y-84557500D03*
D15*
X133770000Y-119220000D03*
X135645000Y-119220000D03*
D20*
X128797500Y-121220000D03*
X129817500Y-121220000D03*
D29*
X137932500Y-78620000D03*
X139482500Y-78620000D03*
D10*
X117500000Y-84275000D03*
X117500000Y-82625000D03*
D15*
X128370000Y-119220000D03*
X130245000Y-119220000D03*
D14*
X124320000Y-91000000D03*
X125280000Y-91000000D03*
D17*
X123550000Y-128290000D03*
X123550000Y-130500000D03*
X130850000Y-128290000D03*
X130850000Y-130500000D03*
D18*
X124950000Y-127368000D03*
X127950000Y-127368000D03*
X129450000Y-127368000D03*
D30*
X124957500Y-104295000D03*
X125457500Y-104295000D03*
X125957500Y-104295000D03*
X126457500Y-104295000D03*
X126957500Y-104295000D03*
X127457500Y-104295000D03*
X127957500Y-104295000D03*
X128457500Y-104295000D03*
X128957500Y-104295000D03*
X129457500Y-104295000D03*
X129957500Y-104295000D03*
X130457500Y-104295000D03*
X130957500Y-104295000D03*
X131457500Y-104295000D03*
X131957500Y-104295000D03*
X132457500Y-104295000D03*
D31*
X134382500Y-102370000D03*
X134382500Y-101870000D03*
X134382500Y-101370000D03*
X134382500Y-100870000D03*
X134382500Y-100370000D03*
X134382500Y-99870000D03*
X134382500Y-99370000D03*
X134382500Y-98870000D03*
X134382500Y-98370000D03*
X134382500Y-97870000D03*
X134382500Y-97370000D03*
X134382500Y-96870000D03*
X134382500Y-96370000D03*
X134382500Y-95870000D03*
X134382500Y-95370000D03*
X134382500Y-94870000D03*
D30*
X132457500Y-92945000D03*
X131957500Y-92945000D03*
X131457500Y-92945000D03*
X130957500Y-92945000D03*
X130457500Y-92945000D03*
X129957500Y-92945000D03*
X129457500Y-92945000D03*
X128957500Y-92945000D03*
X128457500Y-92945000D03*
X127957500Y-92945000D03*
X127457500Y-92945000D03*
X126957500Y-92945000D03*
X126457500Y-92945000D03*
X125957500Y-92945000D03*
X125457500Y-92945000D03*
X124957500Y-92945000D03*
D31*
X123032500Y-94870000D03*
X123032500Y-95370000D03*
X123032500Y-95870000D03*
X123032500Y-96370000D03*
X123032500Y-96870000D03*
X123032500Y-97370000D03*
X123032500Y-97870000D03*
X123032500Y-98370000D03*
X123032500Y-98870000D03*
X123032500Y-99370000D03*
X123032500Y-99870000D03*
X123032500Y-100370000D03*
X123032500Y-100870000D03*
X123032500Y-101370000D03*
X123032500Y-101870000D03*
X123032500Y-102370000D03*
D11*
X140845000Y-115495000D03*
X140845000Y-116145000D03*
X140845000Y-116795000D03*
X140845000Y-117445000D03*
X140845000Y-118095000D03*
X140845000Y-118745000D03*
X140845000Y-119395000D03*
X140845000Y-120045000D03*
X140845000Y-120695000D03*
X140845000Y-121345000D03*
X146570000Y-121345000D03*
X146570000Y-120695000D03*
X146570000Y-120045000D03*
X146570000Y-119395000D03*
X146570000Y-118745000D03*
X146570000Y-118095000D03*
X146570000Y-117445000D03*
X146570000Y-116795000D03*
X146570000Y-116145000D03*
X146570000Y-115495000D03*
X140845000Y-89095000D03*
X140845000Y-89745000D03*
X140845000Y-90395000D03*
X140845000Y-91045000D03*
X140845000Y-91695000D03*
X140845000Y-92345000D03*
X140845000Y-92995000D03*
X140845000Y-93645000D03*
X140845000Y-94295000D03*
X140845000Y-94945000D03*
X146570000Y-94945000D03*
X146570000Y-94295000D03*
X146570000Y-93645000D03*
X146570000Y-92995000D03*
X146570000Y-92345000D03*
X146570000Y-91695000D03*
X146570000Y-91045000D03*
X146570000Y-90395000D03*
X146570000Y-89745000D03*
X146570000Y-89095000D03*
D14*
X145427500Y-96420000D03*
X146387500Y-96420000D03*
D13*
X141987500Y-96420000D03*
X141027500Y-96420000D03*
D32*
X143817500Y-81020000D03*
X142797500Y-81020000D03*
D33*
X124000000Y-82525000D03*
X124000000Y-86675000D03*
D14*
X145427500Y-105220000D03*
X146387500Y-105220000D03*
D13*
X124330000Y-106000000D03*
X123370000Y-106000000D03*
X131187500Y-106220000D03*
X130227500Y-106220000D03*
D34*
X137907500Y-93845000D03*
X137907500Y-95395000D03*
D20*
X123397500Y-121220000D03*
X124417500Y-121220000D03*
D14*
X125307500Y-109470000D03*
X126267500Y-109470000D03*
D16*
X121107500Y-103100000D03*
X121107500Y-102140000D03*
D14*
X145427500Y-87620000D03*
X146387500Y-87620000D03*
M02*
