G04 #@! TF.GenerationSoftware,KiCad,Pcbnew,7.0.7*
G04 #@! TF.CreationDate,2023-09-26T12:49:17-04:00*
G04 #@! TF.ProjectId,programmer,70726f67-7261-46d6-9d65-722e6b696361,rev?*
G04 #@! TF.SameCoordinates,Original*
G04 #@! TF.FileFunction,Copper,L1,Top*
G04 #@! TF.FilePolarity,Positive*
%FSLAX46Y46*%
G04 Gerber Fmt 4.6, Leading zero omitted, Abs format (unit mm)*
G04 Created by KiCad (PCBNEW 7.0.7) date 2023-09-26 12:49:17*
%MOMM*%
%LPD*%
G01*
G04 APERTURE LIST*
G04 Aperture macros list*
%AMRoundRect*
0 Rectangle with rounded corners*
0 $1 Rounding radius*
0 $2 $3 $4 $5 $6 $7 $8 $9 X,Y pos of 4 corners*
0 Add a 4 corners polygon primitive as box body*
4,1,4,$2,$3,$4,$5,$6,$7,$8,$9,$2,$3,0*
0 Add four circle primitives for the rounded corners*
1,1,$1+$1,$2,$3*
1,1,$1+$1,$4,$5*
1,1,$1+$1,$6,$7*
1,1,$1+$1,$8,$9*
0 Add four rect primitives between the rounded corners*
20,1,$1+$1,$2,$3,$4,$5,0*
20,1,$1+$1,$4,$5,$6,$7,0*
20,1,$1+$1,$6,$7,$8,$9,0*
20,1,$1+$1,$8,$9,$2,$3,0*%
%AMFreePoly0*
4,1,9,1.050000,0.350000,0.550000,0.000000,0.550000,-0.400000,0.800000,-0.650000,0.800000,-0.800000,-1.050000,-0.800000,-1.050000,0.800000,1.050000,0.800000,1.050000,0.350000,1.050000,0.350000,$1*%
%AMFreePoly1*
4,1,9,1.050000,-0.800000,-0.800000,-0.800000,-0.800000,-0.650000,-0.550000,-0.400000,-0.550000,0.000000,-1.050000,0.350000,-1.050000,0.800000,1.050000,0.800000,1.050000,-0.800000,1.050000,-0.800000,$1*%
G04 Aperture macros list end*
G04 #@! TA.AperFunction,SMDPad,CuDef*
%ADD10RoundRect,0.200000X0.275000X-0.200000X0.275000X0.200000X-0.275000X0.200000X-0.275000X-0.200000X0*%
G04 #@! TD*
G04 #@! TA.AperFunction,SMDPad,CuDef*
%ADD11RoundRect,0.100000X-0.637500X-0.100000X0.637500X-0.100000X0.637500X0.100000X-0.637500X0.100000X0*%
G04 #@! TD*
G04 #@! TA.AperFunction,SMDPad,CuDef*
%ADD12RoundRect,0.225000X0.225000X0.250000X-0.225000X0.250000X-0.225000X-0.250000X0.225000X-0.250000X0*%
G04 #@! TD*
G04 #@! TA.AperFunction,SMDPad,CuDef*
%ADD13RoundRect,0.140000X0.140000X0.170000X-0.140000X0.170000X-0.140000X-0.170000X0.140000X-0.170000X0*%
G04 #@! TD*
G04 #@! TA.AperFunction,SMDPad,CuDef*
%ADD14RoundRect,0.140000X-0.140000X-0.170000X0.140000X-0.170000X0.140000X0.170000X-0.140000X0.170000X0*%
G04 #@! TD*
G04 #@! TA.AperFunction,SMDPad,CuDef*
%ADD15RoundRect,0.243750X-0.243750X-0.456250X0.243750X-0.456250X0.243750X0.456250X-0.243750X0.456250X0*%
G04 #@! TD*
G04 #@! TA.AperFunction,SMDPad,CuDef*
%ADD16RoundRect,0.140000X0.170000X-0.140000X0.170000X0.140000X-0.170000X0.140000X-0.170000X-0.140000X0*%
G04 #@! TD*
G04 #@! TA.AperFunction,SMDPad,CuDef*
%ADD17R,1.400000X0.800000*%
G04 #@! TD*
G04 #@! TA.AperFunction,SMDPad,CuDef*
%ADD18R,0.800000X2.000000*%
G04 #@! TD*
G04 #@! TA.AperFunction,SMDPad,CuDef*
%ADD19RoundRect,0.140000X-0.170000X0.140000X-0.170000X-0.140000X0.170000X-0.140000X0.170000X0.140000X0*%
G04 #@! TD*
G04 #@! TA.AperFunction,SMDPad,CuDef*
%ADD20RoundRect,0.135000X-0.135000X-0.185000X0.135000X-0.185000X0.135000X0.185000X-0.135000X0.185000X0*%
G04 #@! TD*
G04 #@! TA.AperFunction,SMDPad,CuDef*
%ADD21RoundRect,0.150000X-0.150000X0.512500X-0.150000X-0.512500X0.150000X-0.512500X0.150000X0.512500X0*%
G04 #@! TD*
G04 #@! TA.AperFunction,SMDPad,CuDef*
%ADD22R,2.000000X2.400000*%
G04 #@! TD*
G04 #@! TA.AperFunction,SMDPad,CuDef*
%ADD23RoundRect,0.243750X-0.456250X0.243750X-0.456250X-0.243750X0.456250X-0.243750X0.456250X0.243750X0*%
G04 #@! TD*
G04 #@! TA.AperFunction,SMDPad,CuDef*
%ADD24RoundRect,0.200000X0.200000X0.275000X-0.200000X0.275000X-0.200000X-0.275000X0.200000X-0.275000X0*%
G04 #@! TD*
G04 #@! TA.AperFunction,SMDPad,CuDef*
%ADD25R,0.400000X1.350000*%
G04 #@! TD*
G04 #@! TA.AperFunction,SMDPad,CuDef*
%ADD26FreePoly0,180.000000*%
G04 #@! TD*
G04 #@! TA.AperFunction,ComponentPad*
%ADD27O,1.000000X1.700000*%
G04 #@! TD*
G04 #@! TA.AperFunction,SMDPad,CuDef*
%ADD28R,1.900000X1.900000*%
G04 #@! TD*
G04 #@! TA.AperFunction,ComponentPad*
%ADD29O,0.850000X1.700000*%
G04 #@! TD*
G04 #@! TA.AperFunction,SMDPad,CuDef*
%ADD30FreePoly1,180.000000*%
G04 #@! TD*
G04 #@! TA.AperFunction,ComponentPad*
%ADD31C,0.800000*%
G04 #@! TD*
G04 #@! TA.AperFunction,ComponentPad*
%ADD32C,6.400000*%
G04 #@! TD*
G04 #@! TA.AperFunction,ComponentPad*
%ADD33R,1.700000X1.700000*%
G04 #@! TD*
G04 #@! TA.AperFunction,ComponentPad*
%ADD34O,1.700000X1.700000*%
G04 #@! TD*
G04 #@! TA.AperFunction,SMDPad,CuDef*
%ADD35RoundRect,0.225000X-0.225000X-0.250000X0.225000X-0.250000X0.225000X0.250000X-0.225000X0.250000X0*%
G04 #@! TD*
G04 #@! TA.AperFunction,SMDPad,CuDef*
%ADD36RoundRect,0.075000X0.075000X-0.700000X0.075000X0.700000X-0.075000X0.700000X-0.075000X-0.700000X0*%
G04 #@! TD*
G04 #@! TA.AperFunction,SMDPad,CuDef*
%ADD37RoundRect,0.075000X0.700000X-0.075000X0.700000X0.075000X-0.700000X0.075000X-0.700000X-0.075000X0*%
G04 #@! TD*
G04 #@! TA.AperFunction,ComponentPad*
%ADD38R,2.000000X1.440000*%
G04 #@! TD*
G04 #@! TA.AperFunction,ComponentPad*
%ADD39O,2.000000X1.440000*%
G04 #@! TD*
G04 #@! TA.AperFunction,SMDPad,CuDef*
%ADD40RoundRect,0.135000X0.135000X0.185000X-0.135000X0.185000X-0.135000X-0.185000X0.135000X-0.185000X0*%
G04 #@! TD*
G04 #@! TA.AperFunction,SMDPad,CuDef*
%ADD41RoundRect,0.135000X0.765000X-0.540000X0.765000X0.540000X-0.765000X0.540000X-0.765000X-0.540000X0*%
G04 #@! TD*
G04 #@! TA.AperFunction,SMDPad,CuDef*
%ADD42RoundRect,0.225000X-0.250000X0.225000X-0.250000X-0.225000X0.250000X-0.225000X0.250000X0.225000X0*%
G04 #@! TD*
G04 #@! TA.AperFunction,ViaPad*
%ADD43C,0.800000*%
G04 #@! TD*
G04 #@! TA.AperFunction,ViaPad*
%ADD44C,0.750000*%
G04 #@! TD*
G04 #@! TA.AperFunction,ViaPad*
%ADD45C,0.600000*%
G04 #@! TD*
G04 #@! TA.AperFunction,Conductor*
%ADD46C,0.400000*%
G04 #@! TD*
G04 #@! TA.AperFunction,Conductor*
%ADD47C,0.300000*%
G04 #@! TD*
G04 #@! TA.AperFunction,Conductor*
%ADD48C,0.250000*%
G04 #@! TD*
G04 #@! TA.AperFunction,Conductor*
%ADD49C,0.150000*%
G04 #@! TD*
G04 #@! TA.AperFunction,Conductor*
%ADD50C,0.200000*%
G04 #@! TD*
G04 APERTURE END LIST*
D10*
X119500000Y-84275000D03*
X119500000Y-82625000D03*
D11*
X140845000Y-106695000D03*
X140845000Y-107345000D03*
X140845000Y-107995000D03*
X140845000Y-108645000D03*
X140845000Y-109295000D03*
X140845000Y-109945000D03*
X140845000Y-110595000D03*
X140845000Y-111245000D03*
X140845000Y-111895000D03*
X140845000Y-112545000D03*
X146570000Y-112545000D03*
X146570000Y-111895000D03*
X146570000Y-111245000D03*
X146570000Y-110595000D03*
X146570000Y-109945000D03*
X146570000Y-109295000D03*
X146570000Y-108645000D03*
X146570000Y-107995000D03*
X146570000Y-107345000D03*
X146570000Y-106695000D03*
D12*
X139482500Y-84820000D03*
X137932500Y-84820000D03*
D13*
X141987500Y-87620000D03*
X141027500Y-87620000D03*
D14*
X145427500Y-114020000D03*
X146387500Y-114020000D03*
D15*
X122970000Y-119220000D03*
X124845000Y-119220000D03*
D16*
X121700000Y-85080000D03*
X121700000Y-84120000D03*
D17*
X134345000Y-128290000D03*
X134345000Y-130500000D03*
X141645000Y-128290000D03*
X141645000Y-130500000D03*
D18*
X135745000Y-127368000D03*
X138745000Y-127368000D03*
X140245000Y-127368000D03*
D19*
X136307500Y-101640000D03*
X136307500Y-102600000D03*
D20*
X133597500Y-81020000D03*
X134617500Y-81020000D03*
D21*
X139657500Y-80482500D03*
X138707500Y-80482500D03*
X137757500Y-80482500D03*
X137757500Y-82757500D03*
X139657500Y-82757500D03*
D11*
X140845000Y-97895000D03*
X140845000Y-98545000D03*
X140845000Y-99195000D03*
X140845000Y-99845000D03*
X140845000Y-100495000D03*
X140845000Y-101145000D03*
X140845000Y-101795000D03*
X140845000Y-102445000D03*
X140845000Y-103095000D03*
X140845000Y-103745000D03*
X146570000Y-103745000D03*
X146570000Y-103095000D03*
X146570000Y-102445000D03*
X146570000Y-101795000D03*
X146570000Y-101145000D03*
X146570000Y-100495000D03*
X146570000Y-99845000D03*
X146570000Y-99195000D03*
X146570000Y-98545000D03*
X146570000Y-97895000D03*
D10*
X115500000Y-84275000D03*
X115500000Y-82625000D03*
D22*
X126157500Y-112220000D03*
X122457500Y-112220000D03*
D23*
X143307500Y-82682500D03*
X143307500Y-84557500D03*
D13*
X141987500Y-105220000D03*
X141027500Y-105220000D03*
D19*
X136307500Y-94340000D03*
X136307500Y-95300000D03*
D13*
X123307500Y-109470000D03*
X122347500Y-109470000D03*
D24*
X127912500Y-125000000D03*
X126262500Y-125000000D03*
D12*
X131882500Y-107820000D03*
X130332500Y-107820000D03*
D24*
X138687500Y-125000000D03*
X137037500Y-125000000D03*
D13*
X141987500Y-114020000D03*
X141027500Y-114020000D03*
D20*
X134197500Y-121220000D03*
X135217500Y-121220000D03*
D25*
X132207500Y-76705000D03*
X131557500Y-76705000D03*
X130907500Y-76705000D03*
X130257500Y-76705000D03*
X129607500Y-76705000D03*
D26*
X134007500Y-76580000D03*
D27*
X133732500Y-74030000D03*
D28*
X132107500Y-74030000D03*
X129707500Y-74030000D03*
D29*
X128082500Y-74030000D03*
D30*
X127807500Y-76580000D03*
D31*
X113507500Y-126420000D03*
X114210444Y-124722944D03*
X114210444Y-128117056D03*
X115907500Y-124020000D03*
D32*
X115907500Y-126420000D03*
D31*
X115907500Y-128820000D03*
X117604556Y-124722944D03*
X117604556Y-128117056D03*
X118307500Y-126420000D03*
D23*
X134107500Y-82682500D03*
X134107500Y-84557500D03*
D15*
X133770000Y-119220000D03*
X135645000Y-119220000D03*
D20*
X128797500Y-121220000D03*
X129817500Y-121220000D03*
D33*
X116775000Y-113345000D03*
D34*
X114235000Y-113345000D03*
X116775000Y-110805000D03*
X114235000Y-110805000D03*
X116775000Y-108265000D03*
X114235000Y-108265000D03*
X116775000Y-105725000D03*
X114235000Y-105725000D03*
X116775000Y-103185000D03*
X114235000Y-103185000D03*
X116775000Y-100645000D03*
X114235000Y-100645000D03*
X116775000Y-98105000D03*
X114235000Y-98105000D03*
X116775000Y-95565000D03*
X114235000Y-95565000D03*
X116775000Y-93025000D03*
X114235000Y-93025000D03*
X116775000Y-90485000D03*
X114235000Y-90485000D03*
D35*
X137932500Y-78620000D03*
X139482500Y-78620000D03*
D10*
X117500000Y-84275000D03*
X117500000Y-82625000D03*
D15*
X128370000Y-119220000D03*
X130245000Y-119220000D03*
D14*
X124320000Y-91000000D03*
X125280000Y-91000000D03*
D17*
X123550000Y-128290000D03*
X123550000Y-130500000D03*
X130850000Y-128290000D03*
X130850000Y-130500000D03*
D18*
X124950000Y-127368000D03*
X127950000Y-127368000D03*
X129450000Y-127368000D03*
D36*
X124957500Y-104295000D03*
X125457500Y-104295000D03*
X125957500Y-104295000D03*
X126457500Y-104295000D03*
X126957500Y-104295000D03*
X127457500Y-104295000D03*
X127957500Y-104295000D03*
X128457500Y-104295000D03*
X128957500Y-104295000D03*
X129457500Y-104295000D03*
X129957500Y-104295000D03*
X130457500Y-104295000D03*
X130957500Y-104295000D03*
X131457500Y-104295000D03*
X131957500Y-104295000D03*
X132457500Y-104295000D03*
D37*
X134382500Y-102370000D03*
X134382500Y-101870000D03*
X134382500Y-101370000D03*
X134382500Y-100870000D03*
X134382500Y-100370000D03*
X134382500Y-99870000D03*
X134382500Y-99370000D03*
X134382500Y-98870000D03*
X134382500Y-98370000D03*
X134382500Y-97870000D03*
X134382500Y-97370000D03*
X134382500Y-96870000D03*
X134382500Y-96370000D03*
X134382500Y-95870000D03*
X134382500Y-95370000D03*
X134382500Y-94870000D03*
D36*
X132457500Y-92945000D03*
X131957500Y-92945000D03*
X131457500Y-92945000D03*
X130957500Y-92945000D03*
X130457500Y-92945000D03*
X129957500Y-92945000D03*
X129457500Y-92945000D03*
X128957500Y-92945000D03*
X128457500Y-92945000D03*
X127957500Y-92945000D03*
X127457500Y-92945000D03*
X126957500Y-92945000D03*
X126457500Y-92945000D03*
X125957500Y-92945000D03*
X125457500Y-92945000D03*
X124957500Y-92945000D03*
D37*
X123032500Y-94870000D03*
X123032500Y-95370000D03*
X123032500Y-95870000D03*
X123032500Y-96370000D03*
X123032500Y-96870000D03*
X123032500Y-97370000D03*
X123032500Y-97870000D03*
X123032500Y-98370000D03*
X123032500Y-98870000D03*
X123032500Y-99370000D03*
X123032500Y-99870000D03*
X123032500Y-100370000D03*
X123032500Y-100870000D03*
X123032500Y-101370000D03*
X123032500Y-101870000D03*
X123032500Y-102370000D03*
D11*
X140845000Y-115495000D03*
X140845000Y-116145000D03*
X140845000Y-116795000D03*
X140845000Y-117445000D03*
X140845000Y-118095000D03*
X140845000Y-118745000D03*
X140845000Y-119395000D03*
X140845000Y-120045000D03*
X140845000Y-120695000D03*
X140845000Y-121345000D03*
X146570000Y-121345000D03*
X146570000Y-120695000D03*
X146570000Y-120045000D03*
X146570000Y-119395000D03*
X146570000Y-118745000D03*
X146570000Y-118095000D03*
X146570000Y-117445000D03*
X146570000Y-116795000D03*
X146570000Y-116145000D03*
X146570000Y-115495000D03*
X140845000Y-89095000D03*
X140845000Y-89745000D03*
X140845000Y-90395000D03*
X140845000Y-91045000D03*
X140845000Y-91695000D03*
X140845000Y-92345000D03*
X140845000Y-92995000D03*
X140845000Y-93645000D03*
X140845000Y-94295000D03*
X140845000Y-94945000D03*
X146570000Y-94945000D03*
X146570000Y-94295000D03*
X146570000Y-93645000D03*
X146570000Y-92995000D03*
X146570000Y-92345000D03*
X146570000Y-91695000D03*
X146570000Y-91045000D03*
X146570000Y-90395000D03*
X146570000Y-89745000D03*
X146570000Y-89095000D03*
D14*
X145427500Y-96420000D03*
X146387500Y-96420000D03*
D38*
X154107500Y-84960000D03*
D39*
X154107500Y-87500000D03*
X154107500Y-90040000D03*
X154107500Y-92580000D03*
X154107500Y-95120000D03*
X154107500Y-97660000D03*
X154107500Y-100200000D03*
X154107500Y-102740000D03*
X154107500Y-105280000D03*
X154107500Y-107820000D03*
X154107500Y-110360000D03*
X154107500Y-112900000D03*
X154107500Y-115440000D03*
X154107500Y-117980000D03*
X154107500Y-120520000D03*
X154107500Y-123060000D03*
X169347500Y-123060000D03*
X169347500Y-120520000D03*
X169347500Y-117980000D03*
X169347500Y-115440000D03*
X169347500Y-112900000D03*
X169347500Y-110360000D03*
X169347500Y-107820000D03*
X169347500Y-105280000D03*
X169347500Y-102740000D03*
X169347500Y-100200000D03*
X169347500Y-97660000D03*
X169347500Y-95120000D03*
X169347500Y-92580000D03*
X169347500Y-90040000D03*
X169347500Y-87500000D03*
X169347500Y-84960000D03*
D13*
X141987500Y-96420000D03*
X141027500Y-96420000D03*
D40*
X143817500Y-81020000D03*
X142797500Y-81020000D03*
D31*
X175507500Y-77420000D03*
X176210444Y-75722944D03*
X176210444Y-79117056D03*
X177907500Y-75020000D03*
D32*
X177907500Y-77420000D03*
D31*
X177907500Y-79820000D03*
X179604556Y-75722944D03*
X179604556Y-79117056D03*
X180307500Y-77420000D03*
X113507500Y-77420000D03*
X114210444Y-75722944D03*
X114210444Y-79117056D03*
X115907500Y-75020000D03*
D32*
X115907500Y-77420000D03*
D31*
X115907500Y-79820000D03*
X117604556Y-75722944D03*
X117604556Y-79117056D03*
X118307500Y-77420000D03*
D41*
X124000000Y-82525000D03*
X124000000Y-86675000D03*
D14*
X145427500Y-105220000D03*
X146387500Y-105220000D03*
D31*
X175507500Y-126420000D03*
X176210444Y-124722944D03*
X176210444Y-128117056D03*
X177907500Y-124020000D03*
D32*
X177907500Y-126420000D03*
D31*
X177907500Y-128820000D03*
X179604556Y-124722944D03*
X179604556Y-128117056D03*
X180307500Y-126420000D03*
D13*
X124330000Y-106000000D03*
X123370000Y-106000000D03*
X131187500Y-106220000D03*
X130227500Y-106220000D03*
D42*
X137907500Y-93845000D03*
X137907500Y-95395000D03*
D20*
X123397500Y-121220000D03*
X124417500Y-121220000D03*
D14*
X125307500Y-109470000D03*
X126267500Y-109470000D03*
D16*
X121107500Y-103100000D03*
X121107500Y-102140000D03*
D14*
X145427500Y-87620000D03*
X146387500Y-87620000D03*
D43*
X139650000Y-81450000D03*
X144450000Y-84550000D03*
X137850000Y-79400000D03*
X145200000Y-113200000D03*
X145250000Y-86800000D03*
X145150000Y-104450000D03*
X145000000Y-95850000D03*
D44*
X146650000Y-86850000D03*
X137300000Y-96150500D03*
X118600000Y-82650000D03*
X146850000Y-104550000D03*
X135400000Y-81000000D03*
X142800000Y-80300000D03*
X140250000Y-125850000D03*
X136300000Y-103300000D03*
X129500000Y-125850000D03*
X125400000Y-90300000D03*
X140300000Y-105200000D03*
X139500000Y-77750000D03*
X124400000Y-96150000D03*
X134000000Y-77750000D03*
X123200000Y-106750000D03*
X130690734Y-108709266D03*
X140250000Y-96350000D03*
X147750000Y-112544500D03*
X136000000Y-121250000D03*
X134900000Y-74000000D03*
X145334956Y-94707877D03*
X140950497Y-86900000D03*
X124000000Y-83600000D03*
X140300000Y-114000000D03*
X129800000Y-75500000D03*
X145450000Y-121350000D03*
X123550000Y-110200000D03*
X137900000Y-85750000D03*
X122400000Y-84100000D03*
X121149500Y-101450000D03*
X132050000Y-75455498D03*
X146200000Y-95650000D03*
X116600000Y-82650000D03*
X126950000Y-74050000D03*
X121650000Y-97100000D03*
X138950000Y-79400000D03*
X138700000Y-95850000D03*
X147800000Y-103950000D03*
X129600000Y-77800000D03*
X130650000Y-121200000D03*
X114600000Y-82650000D03*
X125250000Y-121250000D03*
X127800000Y-77800000D03*
X137100000Y-84850000D03*
X124500500Y-109200000D03*
X147050000Y-114000000D03*
D45*
X139150000Y-85800000D03*
X140150000Y-85800000D03*
D44*
X141900000Y-86900000D03*
X135948273Y-101001727D03*
X142150000Y-104450000D03*
X142350000Y-113250000D03*
X135700000Y-125800000D03*
X124200000Y-90300000D03*
X125000000Y-125850000D03*
X137550000Y-92950000D03*
X134100000Y-85500000D03*
X142050000Y-95650000D03*
X124250000Y-106800000D03*
X121149500Y-103850000D03*
X132409266Y-108590734D03*
D45*
X125150000Y-99150000D03*
X118900000Y-95850000D03*
X120650000Y-94100000D03*
X119850000Y-98000000D03*
X127800000Y-112550000D03*
X125150000Y-107250000D03*
X127800000Y-111200000D03*
X125750000Y-106700000D03*
X126425500Y-106119929D03*
X127800000Y-109950000D03*
X129950000Y-103050000D03*
X133800000Y-110100000D03*
X133500000Y-108750000D03*
X131550000Y-103050000D03*
X133800000Y-104450000D03*
X133050000Y-101250000D03*
X133150000Y-100350000D03*
X134350000Y-103500000D03*
X138550000Y-98150000D03*
X131800000Y-95850000D03*
X138050000Y-97450000D03*
X132200000Y-95000000D03*
X138650000Y-96800000D03*
X132600000Y-94200000D03*
X126650000Y-99550000D03*
X136150000Y-92750000D03*
X139400000Y-94950000D03*
X124350000Y-101000000D03*
X128800000Y-102550000D03*
X127200000Y-117400000D03*
D46*
X145427500Y-86977500D02*
X145427500Y-87620000D01*
X145427500Y-114020000D02*
X145427500Y-113427500D01*
D47*
X146570000Y-107345000D02*
X145846104Y-107345000D01*
X146570000Y-116145000D02*
X145845000Y-116145000D01*
X145427500Y-89326396D02*
X145846104Y-89745000D01*
D46*
X137862500Y-78550000D02*
X137932500Y-78620000D01*
D47*
X145427500Y-98126396D02*
X145427500Y-96420000D01*
X145427500Y-106926396D02*
X145427500Y-105220000D01*
X145846104Y-107345000D02*
X145427500Y-106926396D01*
X145427500Y-87620000D02*
X145427500Y-89326396D01*
D46*
X132207500Y-76705000D02*
X132207500Y-77757500D01*
D47*
X145846104Y-98545000D02*
X145427500Y-98126396D01*
D46*
X132207500Y-77757500D02*
X133000000Y-78550000D01*
X145250000Y-86800000D02*
X145427500Y-86977500D01*
X133000000Y-78550000D02*
X137862500Y-78550000D01*
X144442500Y-84557500D02*
X144450000Y-84550000D01*
X145427500Y-113427500D02*
X145200000Y-113200000D01*
D47*
X145400000Y-115700000D02*
X145400000Y-114047500D01*
X145400000Y-114047500D02*
X145427500Y-114020000D01*
D46*
X143307500Y-84557500D02*
X144442500Y-84557500D01*
D47*
X145845000Y-116145000D02*
X145400000Y-115700000D01*
D46*
X145427500Y-105220000D02*
X145427500Y-104727500D01*
X145427500Y-104727500D02*
X145150000Y-104450000D01*
D47*
X146570000Y-98545000D02*
X145846104Y-98545000D01*
X145846104Y-89745000D02*
X146570000Y-89745000D01*
D46*
X137757500Y-78795000D02*
X137932500Y-78620000D01*
X145427500Y-96420000D02*
X145427500Y-96277500D01*
X145427500Y-96277500D02*
X145000000Y-95850000D01*
X124000000Y-82525000D02*
X124000000Y-83600000D01*
X135380000Y-81020000D02*
X135400000Y-81000000D01*
X146570000Y-112545000D02*
X147749500Y-112545000D01*
D47*
X129607500Y-76705000D02*
X129607500Y-77792500D01*
D46*
X129450000Y-125900000D02*
X129500000Y-125850000D01*
X123307500Y-109470000D02*
X123307500Y-109957500D01*
X135970000Y-121220000D02*
X136000000Y-121250000D01*
X129450000Y-127368000D02*
X129450000Y-125900000D01*
D47*
X129800000Y-75500000D02*
X129707500Y-75407500D01*
D46*
X119500000Y-82625000D02*
X118625000Y-82625000D01*
X146570000Y-121345000D02*
X145455000Y-121345000D01*
X130332500Y-108351032D02*
X130690734Y-108709266D01*
D47*
X139482500Y-77767500D02*
X139500000Y-77750000D01*
D46*
X141027500Y-87620000D02*
X141027500Y-86977003D01*
D48*
X125457500Y-92945000D02*
X125457500Y-91857500D01*
D47*
X137932500Y-84820000D02*
X137932500Y-85717500D01*
D46*
X115500000Y-82625000D02*
X114625000Y-82625000D01*
X141027500Y-96420000D02*
X140320000Y-96420000D01*
X138245000Y-95395000D02*
X138700000Y-95850000D01*
D47*
X138707500Y-80482500D02*
X138707500Y-79642500D01*
D46*
X140320000Y-96420000D02*
X140250000Y-96350000D01*
X141027500Y-114020000D02*
X140320000Y-114020000D01*
X136307500Y-102600000D02*
X136307500Y-103292500D01*
D48*
X134382500Y-95370000D02*
X136237500Y-95370000D01*
X125457500Y-91857500D02*
X125280000Y-91680000D01*
D46*
X117500000Y-82625000D02*
X116625000Y-82625000D01*
X137812500Y-95300000D02*
X137907500Y-95395000D01*
X118625000Y-82625000D02*
X118600000Y-82650000D01*
X140320000Y-105220000D02*
X140300000Y-105200000D01*
D48*
X121623604Y-102140000D02*
X121107500Y-102140000D01*
X134382500Y-101870000D02*
X135233604Y-101870000D01*
D47*
X139482500Y-78620000D02*
X139482500Y-77767500D01*
D46*
X130227500Y-107715000D02*
X130332500Y-107820000D01*
X121149500Y-101450000D02*
X121107500Y-101492000D01*
D47*
X134007500Y-76580000D02*
X134007500Y-77742500D01*
X126970000Y-74030000D02*
X126950000Y-74050000D01*
D48*
X121893604Y-101870000D02*
X121623604Y-102140000D01*
X135963604Y-102600000D02*
X136307500Y-102600000D01*
D46*
X125307500Y-109470000D02*
X124770500Y-109470000D01*
X147595000Y-103745000D02*
X147800000Y-103950000D01*
D47*
X123032500Y-101370000D02*
X121229500Y-101370000D01*
X123032500Y-97370000D02*
X121920000Y-97370000D01*
D46*
X141027500Y-105220000D02*
X140320000Y-105220000D01*
X145572079Y-94945000D02*
X146570000Y-94945000D01*
X147749500Y-112545000D02*
X147750000Y-112544500D01*
D48*
X130227500Y-105772500D02*
X130227500Y-106220000D01*
D46*
X135217500Y-121220000D02*
X135970000Y-121220000D01*
X130630000Y-121220000D02*
X130650000Y-121200000D01*
X124417500Y-121220000D02*
X125220000Y-121220000D01*
D47*
X123032500Y-96370000D02*
X124180000Y-96370000D01*
X137130000Y-84820000D02*
X137100000Y-84850000D01*
D46*
X147030000Y-114020000D02*
X147050000Y-114000000D01*
D47*
X134007500Y-77742500D02*
X134000000Y-77750000D01*
D46*
X146650000Y-86850000D02*
X146387500Y-87112500D01*
D47*
X129607500Y-77792500D02*
X129600000Y-77800000D01*
D46*
X146387500Y-87112500D02*
X146387500Y-87620000D01*
X114625000Y-82625000D02*
X114600000Y-82650000D01*
X145455000Y-121345000D02*
X145450000Y-121350000D01*
X141027500Y-86977003D02*
X140950497Y-86900000D01*
X140320000Y-114020000D02*
X140300000Y-114000000D01*
X122380000Y-84120000D02*
X122400000Y-84100000D01*
X125220000Y-121220000D02*
X125250000Y-121250000D01*
X146387500Y-96420000D02*
X146387500Y-95837500D01*
X123307500Y-109957500D02*
X123550000Y-110200000D01*
X116625000Y-82625000D02*
X116600000Y-82650000D01*
X140245000Y-127368000D02*
X140245000Y-125855000D01*
X136307500Y-95300000D02*
X137812500Y-95300000D01*
X123370000Y-106580000D02*
X123200000Y-106750000D01*
D47*
X129707500Y-75407500D02*
X129707500Y-74030000D01*
D46*
X137907500Y-95395000D02*
X138245000Y-95395000D01*
X129817500Y-121220000D02*
X130630000Y-121220000D01*
X137300000Y-96150500D02*
X137907500Y-95543000D01*
X124770500Y-109470000D02*
X124500500Y-109200000D01*
X121700000Y-84120000D02*
X122380000Y-84120000D01*
D47*
X123032500Y-95870000D02*
X124120000Y-95870000D01*
D46*
X125280000Y-91000000D02*
X125280000Y-90420000D01*
X142797500Y-81020000D02*
X142797500Y-80302500D01*
D47*
X137932500Y-85717500D02*
X137900000Y-85750000D01*
D46*
X142797500Y-80302500D02*
X142800000Y-80300000D01*
X146387500Y-95837500D02*
X146200000Y-95650000D01*
X134617500Y-81020000D02*
X135380000Y-81020000D01*
X130227500Y-106220000D02*
X130227500Y-107715000D01*
D47*
X123032500Y-96870000D02*
X121880000Y-96870000D01*
D46*
X146387500Y-105012500D02*
X146850000Y-104550000D01*
D47*
X124180000Y-96370000D02*
X124400000Y-96150000D01*
D48*
X130457500Y-104295000D02*
X130457500Y-105542500D01*
X136237500Y-95370000D02*
X136307500Y-95300000D01*
X125280000Y-91680000D02*
X125280000Y-91000000D01*
D47*
X128082500Y-74030000D02*
X126970000Y-74030000D01*
D48*
X130457500Y-105542500D02*
X130227500Y-105772500D01*
D46*
X130332500Y-107820000D02*
X130332500Y-108351032D01*
D48*
X123032500Y-101870000D02*
X121893604Y-101870000D01*
D46*
X123370000Y-106000000D02*
X123370000Y-106580000D01*
X137907500Y-95543000D02*
X137907500Y-95395000D01*
X146387500Y-105220000D02*
X146387500Y-105012500D01*
X145334956Y-94707877D02*
X145572079Y-94945000D01*
D47*
X127807500Y-77792500D02*
X127800000Y-77800000D01*
D48*
X135233604Y-101870000D02*
X135963604Y-102600000D01*
D47*
X133732500Y-74030000D02*
X134870000Y-74030000D01*
X121229500Y-101370000D02*
X121149500Y-101450000D01*
X137932500Y-84820000D02*
X137130000Y-84820000D01*
D46*
X125280000Y-90420000D02*
X125400000Y-90300000D01*
D47*
X127807500Y-76580000D02*
X127807500Y-77792500D01*
D46*
X140245000Y-125855000D02*
X140250000Y-125850000D01*
D47*
X134870000Y-74030000D02*
X134900000Y-74000000D01*
X121920000Y-97370000D02*
X121650000Y-97100000D01*
X124120000Y-95870000D02*
X124400000Y-96150000D01*
X138707500Y-79642500D02*
X138950000Y-79400000D01*
X132107500Y-75397998D02*
X132107500Y-74030000D01*
D46*
X136307500Y-103292500D02*
X136300000Y-103300000D01*
X146570000Y-103745000D02*
X147595000Y-103745000D01*
X121107500Y-101492000D02*
X121107500Y-102140000D01*
D47*
X121880000Y-96870000D02*
X121650000Y-97100000D01*
D46*
X146387500Y-114020000D02*
X147030000Y-114020000D01*
D47*
X132050000Y-75455498D02*
X132107500Y-75397998D01*
D49*
X127000000Y-107300000D02*
X127000000Y-104337500D01*
X122800000Y-108500000D02*
X125800000Y-108500000D01*
X122347500Y-109470000D02*
X122347500Y-108952500D01*
D48*
X122457500Y-109580000D02*
X122457500Y-112220000D01*
D49*
X125800000Y-108500000D02*
X127000000Y-107300000D01*
D48*
X122347500Y-109470000D02*
X122457500Y-109580000D01*
D49*
X127000000Y-104337500D02*
X126957500Y-104295000D01*
X122347500Y-108952500D02*
X122800000Y-108500000D01*
D46*
X141987500Y-96420000D02*
X141987500Y-95712500D01*
D47*
X141568896Y-89745000D02*
X140845000Y-89745000D01*
D46*
X134107500Y-84557500D02*
X134107500Y-85492500D01*
D48*
X135330000Y-94870000D02*
X135860000Y-94340000D01*
D47*
X142100000Y-114132500D02*
X141987500Y-114020000D01*
D46*
X141987500Y-104612500D02*
X142150000Y-104450000D01*
D47*
X142100000Y-115700000D02*
X142100000Y-114132500D01*
D48*
X134382500Y-94870000D02*
X135330000Y-94870000D01*
X124957500Y-92945000D02*
X124957500Y-92157500D01*
D46*
X136860000Y-94340000D02*
X137355000Y-93845000D01*
D48*
X124320000Y-91520000D02*
X124320000Y-91000000D01*
D46*
X131187500Y-106587500D02*
X131882500Y-107282500D01*
X141987500Y-86987500D02*
X141900000Y-86900000D01*
X141987500Y-87620000D02*
X141987500Y-86987500D01*
D48*
X134382500Y-101370000D02*
X135370000Y-101370000D01*
D46*
X131882500Y-107282500D02*
X131882500Y-107820000D01*
D47*
X140845000Y-116145000D02*
X141655000Y-116145000D01*
D46*
X137355000Y-93845000D02*
X137907500Y-93845000D01*
X131187500Y-106220000D02*
X131187500Y-106587500D01*
D48*
X135640000Y-101640000D02*
X136307500Y-101640000D01*
D46*
X136307500Y-101640000D02*
X136307500Y-101360954D01*
D48*
X131187500Y-105487500D02*
X131187500Y-106220000D01*
D47*
X140845000Y-107345000D02*
X141655000Y-107345000D01*
X141655000Y-107345000D02*
X141987500Y-107012500D01*
D46*
X141987500Y-95712500D02*
X142050000Y-95650000D01*
D48*
X124957500Y-92157500D02*
X124320000Y-91520000D01*
X124330000Y-106000000D02*
X124600000Y-106000000D01*
D46*
X141987500Y-113612500D02*
X142350000Y-113250000D01*
X131882500Y-107820000D02*
X131882500Y-108063968D01*
X136307500Y-101360954D02*
X135948273Y-101001727D01*
X131882500Y-108063968D02*
X132409266Y-108590734D01*
X124330000Y-106720000D02*
X124250000Y-106800000D01*
D47*
X140845000Y-98545000D02*
X141568896Y-98545000D01*
X141655000Y-116145000D02*
X142100000Y-115700000D01*
D46*
X124320000Y-90420000D02*
X124200000Y-90300000D01*
D47*
X141987500Y-87620000D02*
X141987500Y-89326396D01*
D46*
X135745000Y-125845000D02*
X135700000Y-125800000D01*
X121107500Y-103808000D02*
X121149500Y-103850000D01*
X121107500Y-103100000D02*
X121107500Y-103808000D01*
X124950000Y-125900000D02*
X125000000Y-125850000D01*
D47*
X141987500Y-107012500D02*
X141987500Y-105220000D01*
D46*
X141987500Y-105220000D02*
X141987500Y-104612500D01*
D48*
X130957500Y-104295000D02*
X130957500Y-105257500D01*
X123032500Y-102370000D02*
X122030000Y-102370000D01*
D47*
X141568896Y-98545000D02*
X141987500Y-98126396D01*
D46*
X124320000Y-91000000D02*
X124320000Y-90420000D01*
D48*
X122030000Y-102370000D02*
X121300000Y-103100000D01*
D46*
X124950000Y-127368000D02*
X124950000Y-125900000D01*
D48*
X121300000Y-103100000D02*
X121107500Y-103100000D01*
D46*
X141987500Y-114020000D02*
X141987500Y-113612500D01*
X137907500Y-93307500D02*
X137550000Y-92950000D01*
D47*
X141987500Y-89326396D02*
X141568896Y-89745000D01*
D48*
X135860000Y-94340000D02*
X136307500Y-94340000D01*
D46*
X134107500Y-85492500D02*
X134100000Y-85500000D01*
X124330000Y-106000000D02*
X124330000Y-106720000D01*
D48*
X135370000Y-101370000D02*
X135640000Y-101640000D01*
D46*
X135745000Y-127368000D02*
X135745000Y-125845000D01*
D47*
X141987500Y-98126396D02*
X141987500Y-96420000D01*
D46*
X137907500Y-93845000D02*
X137907500Y-93307500D01*
D48*
X130957500Y-105257500D02*
X131187500Y-105487500D01*
D46*
X136307500Y-94340000D02*
X136860000Y-94340000D01*
D48*
X124600000Y-106000000D02*
X124957500Y-105642500D01*
X124957500Y-105642500D02*
X124957500Y-104295000D01*
X123430000Y-85080000D02*
X124000000Y-85650000D01*
D49*
X127957500Y-104295000D02*
X127957500Y-101957500D01*
D48*
X124000000Y-85650000D02*
X124000000Y-86675000D01*
D49*
X127957500Y-101957500D02*
X125150000Y-99150000D01*
X116775000Y-95565000D02*
X124000000Y-88340000D01*
X124000000Y-88340000D02*
X124000000Y-86675000D01*
D48*
X121700000Y-85080000D02*
X123430000Y-85080000D01*
D47*
X143307500Y-81842500D02*
X143307500Y-82682500D01*
X143817500Y-81020000D02*
X143817500Y-81332500D01*
X143817500Y-81332500D02*
X143307500Y-81842500D01*
X134107500Y-82007500D02*
X134107500Y-82682500D01*
X133597500Y-81020000D02*
X133597500Y-81497500D01*
X133597500Y-81497500D02*
X134107500Y-82007500D01*
X123397500Y-121220000D02*
X123397500Y-120797500D01*
X123397500Y-120797500D02*
X122970000Y-120370000D01*
X122970000Y-120370000D02*
X122970000Y-119220000D01*
D49*
X121150000Y-117550000D02*
X123900000Y-117550000D01*
X124845000Y-118495000D02*
X124845000Y-119220000D01*
X123900000Y-117550000D02*
X124845000Y-118495000D01*
X119800000Y-116200000D02*
X121150000Y-117550000D01*
X123032500Y-98870000D02*
X120930000Y-98870000D01*
X119800000Y-100000000D02*
X119800000Y-116200000D01*
X120930000Y-98870000D02*
X119800000Y-100000000D01*
D47*
X128370000Y-120370000D02*
X128370000Y-119220000D01*
X128797500Y-120797500D02*
X128370000Y-120370000D01*
X128797500Y-121220000D02*
X128797500Y-120797500D01*
D49*
X120150000Y-100144974D02*
X120150000Y-115350000D01*
X120150000Y-115350000D02*
X121550000Y-116750000D01*
X130250000Y-117700000D02*
X130245000Y-117705000D01*
X123032500Y-99370000D02*
X122957500Y-99445000D01*
X129300000Y-116750000D02*
X130250000Y-117700000D01*
X122957500Y-99445000D02*
X120849974Y-99445000D01*
X120849974Y-99445000D02*
X120150000Y-100144974D01*
X121550000Y-116750000D02*
X129300000Y-116750000D01*
X130245000Y-117705000D02*
X130245000Y-119220000D01*
D47*
X134197500Y-121220000D02*
X134197500Y-120797500D01*
X133770000Y-120370000D02*
X133770000Y-119220000D01*
X134197500Y-120797500D02*
X133770000Y-120370000D01*
D49*
X121130000Y-99870000D02*
X120500000Y-100500000D01*
X135645000Y-117245000D02*
X135645000Y-119220000D01*
X134300000Y-115900000D02*
X135645000Y-117245000D01*
X120500000Y-100500000D02*
X120500000Y-114650000D01*
X121750000Y-115900000D02*
X134300000Y-115900000D01*
X120500000Y-114650000D02*
X121750000Y-115900000D01*
X123032500Y-99870000D02*
X121130000Y-99870000D01*
X123002500Y-98400000D02*
X123032500Y-98370000D01*
X119450000Y-99650000D02*
X120700000Y-98400000D01*
X120700000Y-98400000D02*
X123002500Y-98400000D01*
X116775000Y-110805000D02*
X119450000Y-108130000D01*
X119450000Y-108130000D02*
X119450000Y-99650000D01*
X119000000Y-106040000D02*
X119000000Y-96700000D01*
X120330000Y-95370000D02*
X123032500Y-95370000D01*
X119000000Y-96700000D02*
X120330000Y-95370000D01*
X116775000Y-108265000D02*
X119000000Y-106040000D01*
X125572475Y-94100000D02*
X125957500Y-93714975D01*
X118500000Y-104000000D02*
X118500000Y-96250000D01*
X118500000Y-96250000D02*
X118900000Y-95850000D01*
X125957500Y-93714975D02*
X125957500Y-92945000D01*
X120650000Y-94100000D02*
X125572475Y-94100000D01*
X116775000Y-105725000D02*
X118500000Y-104000000D01*
X116775000Y-103185000D02*
X118100000Y-101860000D01*
X118100000Y-101860000D02*
X118100000Y-95800000D01*
X118100000Y-95800000D02*
X119030000Y-94870000D01*
X119030000Y-94870000D02*
X123032500Y-94870000D01*
D48*
X112700000Y-83100000D02*
X114250000Y-81550000D01*
X120700000Y-84000000D02*
X120425000Y-84275000D01*
X116775000Y-100645000D02*
X115520000Y-101900000D01*
X120200000Y-81550000D02*
X120700000Y-82050000D01*
X120700000Y-82050000D02*
X120700000Y-84000000D01*
X114250000Y-81550000D02*
X120200000Y-81550000D01*
X112700000Y-101200000D02*
X112700000Y-83100000D01*
X113400000Y-101900000D02*
X112700000Y-101200000D01*
X115520000Y-101900000D02*
X113400000Y-101900000D01*
X120425000Y-84275000D02*
X119500000Y-84275000D01*
D49*
X119800000Y-98000000D02*
X119850000Y-98000000D01*
X119930000Y-97870000D02*
X123032500Y-97870000D01*
X119825000Y-97975000D02*
X119800000Y-98000000D01*
X119850000Y-98000000D02*
X119850000Y-97950000D01*
X119850000Y-97950000D02*
X119930000Y-97870000D01*
D48*
X116775000Y-93025000D02*
X117875000Y-93025000D01*
X117500000Y-88600000D02*
X117500000Y-84275000D01*
X118450000Y-89550000D02*
X117500000Y-88600000D01*
X117875000Y-93025000D02*
X118450000Y-92450000D01*
X118450000Y-92450000D02*
X118450000Y-89550000D01*
X116775000Y-90485000D02*
X116775000Y-88925000D01*
X115500000Y-87650000D02*
X115500000Y-84275000D01*
X116775000Y-88925000D02*
X115500000Y-87650000D01*
D50*
X126932500Y-91757499D02*
X126932500Y-89085700D01*
X131557500Y-77717501D02*
X131557500Y-76705000D01*
X131457500Y-84560700D02*
X131457500Y-77817501D01*
X126932500Y-89085700D02*
X131457500Y-84560700D01*
X126957500Y-92945000D02*
X126957500Y-91782499D01*
X126957500Y-91782499D02*
X126932500Y-91757499D01*
X131457500Y-77817501D02*
X131557500Y-77717501D01*
X131007500Y-84374300D02*
X131007500Y-77817501D01*
X126482500Y-91757499D02*
X126482500Y-88899300D01*
X130907500Y-77717501D02*
X130907500Y-76705000D01*
X126457500Y-92945000D02*
X126457500Y-91782499D01*
X126457500Y-91782499D02*
X126482500Y-91757499D01*
X131007500Y-77817501D02*
X130907500Y-77717501D01*
X126482500Y-88899300D02*
X131007500Y-84374300D01*
D48*
X126267500Y-109470000D02*
X126157500Y-109580000D01*
D49*
X127457500Y-107992500D02*
X127457500Y-104295000D01*
D48*
X126157500Y-109580000D02*
X126157500Y-112220000D01*
D49*
X126267500Y-109182500D02*
X127457500Y-107992500D01*
X126267500Y-109470000D02*
X126267500Y-109182500D01*
X146570000Y-97895000D02*
X146575000Y-97900000D01*
X149250000Y-97900000D02*
X150200000Y-96950000D01*
X146575000Y-97900000D02*
X149250000Y-97900000D01*
X150200000Y-94610052D02*
X151127513Y-93682539D01*
X151127513Y-90527512D02*
X152200000Y-89455025D01*
X152200000Y-85600000D02*
X152840000Y-84960000D01*
X151127513Y-93682539D02*
X151127513Y-90527512D01*
X150200000Y-96950000D02*
X150200000Y-94610052D01*
X152200000Y-89455025D02*
X152200000Y-85600000D01*
X152840000Y-84960000D02*
X154107500Y-84960000D01*
X152800000Y-87500000D02*
X154107500Y-87500000D01*
X152550000Y-89600000D02*
X152550000Y-87750000D01*
X152550000Y-87750000D02*
X152800000Y-87500000D01*
X149805000Y-99195000D02*
X150550000Y-98450000D01*
X150550000Y-98450000D02*
X150550000Y-94755026D01*
X146570000Y-99195000D02*
X149805000Y-99195000D01*
X151477513Y-93827513D02*
X151477513Y-90672487D01*
X151477513Y-90672487D02*
X152550000Y-89600000D01*
X150550000Y-94755026D02*
X151477513Y-93827513D01*
X150900000Y-99450000D02*
X150900000Y-94900000D01*
X151950000Y-90900000D02*
X152810000Y-90040000D01*
X152810000Y-90040000D02*
X154107500Y-90040000D01*
X150900000Y-94900000D02*
X151950000Y-93850000D01*
X151950000Y-93850000D02*
X151950000Y-90900000D01*
X146570000Y-99845000D02*
X150505000Y-99845000D01*
X150505000Y-99845000D02*
X150900000Y-99450000D01*
X152820000Y-92580000D02*
X154107500Y-92580000D01*
X151055000Y-100495000D02*
X151300000Y-100250000D01*
X152550000Y-93900000D02*
X152550000Y-92850000D01*
X152550000Y-92850000D02*
X152820000Y-92580000D01*
X151300000Y-100250000D02*
X151300000Y-95150000D01*
X146570000Y-100495000D02*
X151055000Y-100495000D01*
X151300000Y-95150000D02*
X152550000Y-93900000D01*
X151700000Y-100750000D02*
X151700000Y-95650000D01*
X152230000Y-95120000D02*
X154107500Y-95120000D01*
X151700000Y-95650000D02*
X152230000Y-95120000D01*
X151305000Y-101145000D02*
X151700000Y-100750000D01*
X146570000Y-101145000D02*
X151305000Y-101145000D01*
X152100000Y-98050000D02*
X152490000Y-97660000D01*
X152490000Y-97660000D02*
X154107500Y-97660000D01*
X152100000Y-101450000D02*
X152100000Y-98050000D01*
X151755000Y-101795000D02*
X152100000Y-101450000D01*
X146570000Y-101795000D02*
X151755000Y-101795000D01*
X152650000Y-100550000D02*
X153000000Y-100200000D01*
X152650000Y-101900000D02*
X152650000Y-100550000D01*
X146570000Y-102445000D02*
X152105000Y-102445000D01*
X153000000Y-100200000D02*
X154107500Y-100200000D01*
X152105000Y-102445000D02*
X152650000Y-101900000D01*
X152910000Y-102740000D02*
X154107500Y-102740000D01*
X152555000Y-103095000D02*
X152910000Y-102740000D01*
X146570000Y-103095000D02*
X152555000Y-103095000D01*
X146570000Y-106695000D02*
X150805000Y-106695000D01*
X150805000Y-106695000D02*
X152220000Y-105280000D01*
X152220000Y-105280000D02*
X154107500Y-105280000D01*
X146570000Y-107995000D02*
X151755000Y-107995000D01*
X151755000Y-107995000D02*
X151930000Y-107820000D01*
X151930000Y-107820000D02*
X154107500Y-107820000D01*
X151460000Y-110360000D02*
X154107500Y-110360000D01*
X149745000Y-108645000D02*
X151460000Y-110360000D01*
X146570000Y-108645000D02*
X149745000Y-108645000D01*
X153150000Y-112900000D02*
X154107500Y-112900000D01*
X146570000Y-109295000D02*
X149545000Y-109295000D01*
X149545000Y-109295000D02*
X153150000Y-112900000D01*
X152840000Y-115440000D02*
X154107500Y-115440000D01*
X146570000Y-109945000D02*
X149495000Y-109945000D01*
X149495000Y-109945000D02*
X152350000Y-112800000D01*
X152350000Y-112800000D02*
X152350000Y-114950000D01*
X152350000Y-114950000D02*
X152840000Y-115440000D01*
X149495000Y-110595000D02*
X151850000Y-112950000D01*
X152780000Y-117980000D02*
X154107500Y-117980000D01*
X146570000Y-110595000D02*
X149495000Y-110595000D01*
X151850000Y-112950000D02*
X151850000Y-117050000D01*
X151850000Y-117050000D02*
X152780000Y-117980000D01*
X146570000Y-111245000D02*
X149545000Y-111245000D01*
X149545000Y-111245000D02*
X151250000Y-112950000D01*
X151250000Y-119350000D02*
X152420000Y-120520000D01*
X151250000Y-112950000D02*
X151250000Y-119350000D01*
X152420000Y-120520000D02*
X154107500Y-120520000D01*
X146570000Y-111895000D02*
X149595000Y-111895000D01*
X152460000Y-123060000D02*
X154107500Y-123060000D01*
X149595000Y-111895000D02*
X150800000Y-113100000D01*
X150800000Y-121400000D02*
X152460000Y-123060000D01*
X150800000Y-113100000D02*
X150800000Y-121400000D01*
X147650000Y-123700000D02*
X150900000Y-126950000D01*
X146570000Y-120695000D02*
X147295000Y-120695000D01*
X147650000Y-121050000D02*
X147650000Y-123700000D01*
X162040000Y-123060000D02*
X169347500Y-123060000D01*
X147295000Y-120695000D02*
X147650000Y-121050000D01*
X158150000Y-126950000D02*
X162040000Y-123060000D01*
X150900000Y-126950000D02*
X158150000Y-126950000D01*
X148000000Y-120350000D02*
X148000000Y-123500000D01*
X146570000Y-120045000D02*
X147695000Y-120045000D01*
X147695000Y-120045000D02*
X148000000Y-120350000D01*
X148000000Y-123500000D02*
X151100000Y-126600000D01*
X151100000Y-126600000D02*
X157600000Y-126600000D01*
X163680000Y-120520000D02*
X169347500Y-120520000D01*
X157600000Y-126600000D02*
X163680000Y-120520000D01*
X148350000Y-119700000D02*
X148350000Y-123334923D01*
X165255026Y-118244974D02*
X165520000Y-117980000D01*
X151265076Y-126250000D02*
X157244974Y-126250000D01*
X157244974Y-126250000D02*
X165250000Y-118244974D01*
X148350000Y-123334923D02*
X151265076Y-126250000D01*
X146570000Y-119395000D02*
X148045000Y-119395000D01*
X165520000Y-117980000D02*
X169347500Y-117980000D01*
X165250000Y-118244974D02*
X165255026Y-118244974D01*
X148045000Y-119395000D02*
X148350000Y-119700000D01*
X157100000Y-125900000D02*
X163000000Y-120000000D01*
X146570000Y-118745000D02*
X148295000Y-118745000D01*
X148295000Y-118745000D02*
X148700000Y-119150000D01*
X151410050Y-125900000D02*
X157100000Y-125900000D01*
X163000000Y-116750000D02*
X164310000Y-115440000D01*
X163000000Y-120000000D02*
X163000000Y-116750000D01*
X148700000Y-119150000D02*
X148700000Y-123189949D01*
X164310000Y-115440000D02*
X169347500Y-115440000D01*
X148700000Y-123189949D02*
X151410050Y-125900000D01*
X151555025Y-125550000D02*
X156900000Y-125550000D01*
X149050000Y-123044975D02*
X151555025Y-125550000D01*
X163600000Y-112900000D02*
X169347500Y-112900000D01*
X149050000Y-118450000D02*
X149050000Y-123044975D01*
X161950000Y-114550000D02*
X163600000Y-112900000D01*
X148695000Y-118095000D02*
X149050000Y-118450000D01*
X156900000Y-125550000D02*
X161950000Y-120500000D01*
X146570000Y-118095000D02*
X148695000Y-118095000D01*
X161950000Y-120500000D02*
X161950000Y-114550000D01*
X162540000Y-110360000D02*
X169347500Y-110360000D01*
X160650000Y-112250000D02*
X162540000Y-110360000D01*
X149400000Y-117850000D02*
X149400000Y-122900000D01*
X146570000Y-117445000D02*
X146575000Y-117450000D01*
X160650000Y-121294974D02*
X160650000Y-112250000D01*
X156744974Y-125200000D02*
X160650000Y-121294974D01*
X151700000Y-125200000D02*
X156744974Y-125200000D01*
X149000000Y-117450000D02*
X149400000Y-117850000D01*
X149400000Y-122900000D02*
X151700000Y-125200000D01*
X146575000Y-117450000D02*
X149000000Y-117450000D01*
X151900000Y-124850000D02*
X156600000Y-124850000D01*
X149750000Y-122700000D02*
X151900000Y-124850000D01*
X149195000Y-116795000D02*
X149750000Y-117350000D01*
X149750000Y-117350000D02*
X149750000Y-122700000D01*
X159400000Y-110150000D02*
X161730000Y-107820000D01*
X161730000Y-107820000D02*
X169347500Y-107820000D01*
X156600000Y-124850000D02*
X159400000Y-122050000D01*
X159400000Y-122050000D02*
X159400000Y-110150000D01*
X146570000Y-116795000D02*
X149195000Y-116795000D01*
X158400000Y-122350000D02*
X158400000Y-107200000D01*
X158400000Y-107200000D02*
X160320000Y-105280000D01*
X152100000Y-124500000D02*
X156250000Y-124500000D01*
X149495000Y-115495000D02*
X150150000Y-116150000D01*
X150150000Y-122550000D02*
X152100000Y-124500000D01*
X160320000Y-105280000D02*
X169347500Y-105280000D01*
X156250000Y-124500000D02*
X158400000Y-122350000D01*
X146570000Y-115495000D02*
X149495000Y-115495000D01*
X150150000Y-116150000D02*
X150150000Y-122550000D01*
X155900000Y-83250000D02*
X158700000Y-86050000D01*
X150777513Y-93472487D02*
X150777513Y-90382538D01*
X160890000Y-102740000D02*
X169347500Y-102740000D01*
X158700000Y-86050000D02*
X158700000Y-100550000D01*
X150777513Y-90382538D02*
X151330026Y-89830025D01*
X158700000Y-100550000D02*
X160890000Y-102740000D01*
X152750000Y-83250000D02*
X155900000Y-83250000D01*
X149955000Y-94295000D02*
X150777513Y-93472487D01*
X151330026Y-89830025D02*
X151330026Y-84669974D01*
X146570000Y-94295000D02*
X149955000Y-94295000D01*
X151330026Y-84669974D02*
X152750000Y-83250000D01*
X150900000Y-84600000D02*
X152650000Y-82850000D01*
X152650000Y-82850000D02*
X156700000Y-82850000D01*
X156700000Y-82850000D02*
X159800000Y-85950000D01*
X159800000Y-97800000D02*
X162200000Y-100200000D01*
X150105000Y-93645000D02*
X150427513Y-93322487D01*
X146570000Y-93645000D02*
X150105000Y-93645000D01*
X150900000Y-89700000D02*
X150900000Y-84600000D01*
X150427513Y-93322487D02*
X150427513Y-90172487D01*
X150427513Y-90172487D02*
X150900000Y-89700000D01*
X159800000Y-85950000D02*
X159800000Y-97800000D01*
X162200000Y-100200000D02*
X169347500Y-100200000D01*
X150550000Y-84455026D02*
X152605026Y-82400000D01*
X164010000Y-97660000D02*
X169347500Y-97660000D01*
X149605000Y-92995000D02*
X150077513Y-92522487D01*
X157500000Y-82400000D02*
X161350000Y-86250000D01*
X150550000Y-89400000D02*
X150550000Y-84455026D01*
X146570000Y-92995000D02*
X149605000Y-92995000D01*
X161350000Y-95000000D02*
X164010000Y-97660000D01*
X161350000Y-86250000D02*
X161350000Y-95000000D01*
X150077513Y-89872487D02*
X150550000Y-89400000D01*
X150077513Y-92522487D02*
X150077513Y-89872487D01*
X152605026Y-82400000D02*
X157500000Y-82400000D01*
X149600000Y-89650000D02*
X150150000Y-89100000D01*
X158550000Y-81950000D02*
X163050000Y-86450000D01*
X163050000Y-86450000D02*
X163050000Y-92600000D01*
X150150000Y-84200000D02*
X152400000Y-81950000D01*
X146570000Y-92345000D02*
X149255000Y-92345000D01*
X163050000Y-92600000D02*
X165570000Y-95120000D01*
X150150000Y-89100000D02*
X150150000Y-84200000D01*
X149600000Y-92000000D02*
X149600000Y-89650000D01*
X165570000Y-95120000D02*
X169347500Y-95120000D01*
X149255000Y-92345000D02*
X149600000Y-92000000D01*
X152400000Y-81950000D02*
X158550000Y-81950000D01*
X164250000Y-86200000D02*
X164250000Y-90150000D01*
X149752513Y-89002513D02*
X149752513Y-83997487D01*
X146570000Y-91695000D02*
X148855000Y-91695000D01*
X148855000Y-91695000D02*
X149200000Y-91350000D01*
X149200000Y-89555026D02*
X149752513Y-89002513D01*
X159600000Y-81550000D02*
X164250000Y-86200000D01*
X149200000Y-91350000D02*
X149200000Y-89555026D01*
X152200000Y-81550000D02*
X159600000Y-81550000D01*
X164250000Y-90150000D02*
X166680000Y-92580000D01*
X166680000Y-92580000D02*
X169347500Y-92580000D01*
X149752513Y-83997487D02*
X152200000Y-81550000D01*
X146570000Y-91045000D02*
X148205000Y-91045000D01*
X149400000Y-83855026D02*
X152155026Y-81100000D01*
X152155026Y-81100000D02*
X160850000Y-81100000D01*
X148800000Y-90450000D02*
X148800000Y-89400000D01*
X149400000Y-88800000D02*
X149400000Y-83855026D01*
X148800000Y-89400000D02*
X149400000Y-88800000D01*
X167240000Y-90040000D02*
X169347500Y-90040000D01*
X165600000Y-85850000D02*
X165600000Y-88400000D01*
X148205000Y-91045000D02*
X148800000Y-90450000D01*
X160850000Y-81100000D02*
X165600000Y-85850000D01*
X165600000Y-88400000D02*
X167240000Y-90040000D01*
X152110052Y-80650000D02*
X161750000Y-80650000D01*
X166850000Y-85750000D02*
X166850000Y-86800000D01*
X166850000Y-86800000D02*
X167550000Y-87500000D01*
X148950000Y-88600000D02*
X148950000Y-83810052D01*
X148950000Y-83810052D02*
X152110052Y-80650000D01*
X161750000Y-80650000D02*
X166850000Y-85750000D01*
X148150000Y-89400000D02*
X148950000Y-88600000D01*
X167550000Y-87500000D02*
X169347500Y-87500000D01*
X146570000Y-90395000D02*
X147805000Y-90395000D01*
X148150000Y-90050000D02*
X148150000Y-89400000D01*
X147805000Y-90395000D02*
X148150000Y-90050000D01*
X152115078Y-80150000D02*
X163100000Y-80150000D01*
X163100000Y-80150000D02*
X167910000Y-84960000D01*
X147705000Y-89095000D02*
X148400000Y-88400000D01*
X148400000Y-88400000D02*
X148400000Y-83865078D01*
X167910000Y-84960000D02*
X169347500Y-84960000D01*
X146570000Y-89095000D02*
X147705000Y-89095000D01*
X148400000Y-83865078D02*
X152115078Y-80150000D01*
X131957500Y-106057500D02*
X131957500Y-104295000D01*
X140845000Y-111895000D02*
X137795000Y-111895000D01*
X137795000Y-111895000D02*
X131957500Y-106057500D01*
X137945000Y-111245000D02*
X140845000Y-111245000D01*
X132457500Y-104295000D02*
X132457500Y-105757500D01*
X132457500Y-105757500D02*
X137945000Y-111245000D01*
X140845000Y-110595000D02*
X138695000Y-110595000D01*
X133100000Y-102600000D02*
X133330000Y-102370000D01*
X133330000Y-102370000D02*
X134382500Y-102370000D01*
X133100000Y-105000000D02*
X133100000Y-102600000D01*
X138695000Y-110595000D02*
X133100000Y-105000000D01*
X139645000Y-120695000D02*
X140845000Y-120695000D01*
X127800000Y-112550000D02*
X129700000Y-114450000D01*
X135344974Y-114450000D02*
X137200000Y-116305026D01*
X137200000Y-116305026D02*
X137200000Y-118250000D01*
X129700000Y-114450000D02*
X135344974Y-114450000D01*
X125150000Y-106100000D02*
X125457500Y-105792500D01*
X125457500Y-105792500D02*
X125457500Y-104295000D01*
X125150000Y-107250000D02*
X125150000Y-106100000D01*
X137200000Y-118250000D02*
X139645000Y-120695000D01*
X125750000Y-106700000D02*
X125750000Y-105994975D01*
X137550000Y-116160051D02*
X137550000Y-118105026D01*
X137550000Y-118105026D02*
X139489974Y-120045000D01*
X125807500Y-105492500D02*
X125957500Y-105342500D01*
X125807500Y-105937475D02*
X125807500Y-105492500D01*
X125750000Y-105994975D02*
X125807500Y-105937475D01*
X139489974Y-120045000D02*
X140845000Y-120045000D01*
X125957500Y-105342500D02*
X125957500Y-104295000D01*
X134939948Y-113550000D02*
X137550000Y-116160051D01*
X127800000Y-111200000D02*
X130150000Y-113550000D01*
X130150000Y-113550000D02*
X134939948Y-113550000D01*
X130650000Y-112800000D02*
X127800000Y-109950000D01*
X134700000Y-112800000D02*
X130650000Y-112800000D01*
X126358387Y-106163294D02*
X126457500Y-106064181D01*
X126457500Y-106064181D02*
X126457500Y-104295000D01*
X139334948Y-119395000D02*
X137900000Y-117960052D01*
X140845000Y-119395000D02*
X139334948Y-119395000D01*
X137900000Y-117960052D02*
X137900000Y-116000000D01*
X137900000Y-116000000D02*
X134700000Y-112800000D01*
X138250000Y-117815078D02*
X138250000Y-115855025D01*
X139179922Y-118745000D02*
X138250000Y-117815078D01*
X138250000Y-115855025D02*
X134594974Y-112200000D01*
X128000000Y-105750000D02*
X128457500Y-105292500D01*
X131000000Y-112200000D02*
X128000000Y-109200000D01*
X134594974Y-112200000D02*
X131000000Y-112200000D01*
X140845000Y-118745000D02*
X139179922Y-118745000D01*
X128000000Y-109200000D02*
X128000000Y-105750000D01*
X128457500Y-105292500D02*
X128457500Y-104295000D01*
X131500000Y-111550000D02*
X134600000Y-111550000D01*
X128957500Y-104295000D02*
X128957500Y-105342500D01*
X139195000Y-118095000D02*
X140845000Y-118095000D01*
X128450000Y-108500000D02*
X131500000Y-111550000D01*
X138600000Y-115550000D02*
X138600000Y-117500000D01*
X128450000Y-105850000D02*
X128450000Y-108500000D01*
X128957500Y-105342500D02*
X128450000Y-105850000D01*
X138600000Y-117500000D02*
X139195000Y-118095000D01*
X134600000Y-111550000D02*
X138600000Y-115550000D01*
X129050000Y-106200000D02*
X129457500Y-105792500D01*
X139495000Y-117445000D02*
X138950000Y-116900000D01*
X138950000Y-116900000D02*
X138950000Y-115350000D01*
X131750000Y-110750000D02*
X129050000Y-108050000D01*
X140845000Y-117445000D02*
X139495000Y-117445000D01*
X138950000Y-115350000D02*
X134350000Y-110750000D01*
X134350000Y-110750000D02*
X131750000Y-110750000D01*
X129050000Y-108050000D02*
X129050000Y-106200000D01*
X129457500Y-105792500D02*
X129457500Y-104295000D01*
X129950000Y-104287500D02*
X129957500Y-104295000D01*
X133800000Y-110100000D02*
X134200000Y-110100000D01*
X139300000Y-116450000D02*
X139645000Y-116795000D01*
X139645000Y-116795000D02*
X140845000Y-116795000D01*
X129950000Y-103050000D02*
X129950000Y-104287500D01*
X134200000Y-110100000D02*
X139300000Y-115200000D01*
X139300000Y-115200000D02*
X139300000Y-116450000D01*
X139650000Y-115250000D02*
X139895000Y-115495000D01*
X131457500Y-103142500D02*
X131550000Y-103050000D01*
X131457500Y-104295000D02*
X131457500Y-103142500D01*
X139895000Y-115495000D02*
X140845000Y-115495000D01*
X133500000Y-108750000D02*
X139650000Y-114900000D01*
X139650000Y-114900000D02*
X139650000Y-115250000D01*
X130957500Y-91942500D02*
X131400000Y-91500000D01*
X139145000Y-94295000D02*
X140845000Y-94295000D01*
X138700000Y-93850000D02*
X139145000Y-94295000D01*
X137250000Y-91500000D02*
X138700000Y-92950000D01*
X138700000Y-92950000D02*
X138700000Y-93850000D01*
X131400000Y-91500000D02*
X137250000Y-91500000D01*
X130957500Y-92945000D02*
X130957500Y-91942500D01*
X131255026Y-91150000D02*
X137400000Y-91150000D01*
X130457500Y-91947526D02*
X131255026Y-91150000D01*
X137400000Y-91150000D02*
X139050000Y-92800000D01*
X130457500Y-92945000D02*
X130457500Y-91947526D01*
X139495000Y-93645000D02*
X140845000Y-93645000D01*
X139050000Y-93200000D02*
X139495000Y-93645000D01*
X139050000Y-92800000D02*
X139050000Y-93200000D01*
X140845000Y-92995000D02*
X139739975Y-92995000D01*
X129957500Y-91952552D02*
X129957500Y-92945000D01*
X131110052Y-90800000D02*
X129957500Y-91952552D01*
X137544975Y-90800000D02*
X131110052Y-90800000D01*
X139739975Y-92995000D02*
X137544975Y-90800000D01*
X130965078Y-90450000D02*
X137700000Y-90450000D01*
X129457500Y-91957578D02*
X130965078Y-90450000D01*
X139595000Y-92345000D02*
X140845000Y-92345000D01*
X137700000Y-90450000D02*
X139595000Y-92345000D01*
X129457500Y-92945000D02*
X129457500Y-91957578D01*
X128957500Y-91962603D02*
X128957500Y-92945000D01*
X140845000Y-91695000D02*
X139439974Y-91695000D01*
X139439974Y-91695000D02*
X137844975Y-90100000D01*
X137844975Y-90100000D02*
X130820103Y-90100000D01*
X130820103Y-90100000D02*
X128957500Y-91962603D01*
X140845000Y-91045000D02*
X139284948Y-91045000D01*
X128457500Y-91967629D02*
X128457500Y-92945000D01*
X139284948Y-91045000D02*
X137989948Y-89750000D01*
X137989948Y-89750000D02*
X130675129Y-89750000D01*
X130675129Y-89750000D02*
X128457500Y-91967629D01*
X140845000Y-90395000D02*
X139129922Y-90395000D01*
X127957500Y-91972655D02*
X127957500Y-92945000D01*
X138134922Y-89400000D02*
X130530155Y-89400000D01*
X130530155Y-89400000D02*
X127957500Y-91972655D01*
X139129922Y-90395000D02*
X138134922Y-89400000D01*
X140845000Y-89095000D02*
X140800000Y-89050000D01*
X127457500Y-91977681D02*
X127457500Y-92945000D01*
X130385181Y-89050000D02*
X127457500Y-91977681D01*
X140800000Y-89050000D02*
X130385181Y-89050000D01*
X133430000Y-100870000D02*
X133050000Y-101250000D01*
X134382500Y-100870000D02*
X133430000Y-100870000D01*
X138955000Y-109945000D02*
X140845000Y-109945000D01*
X133800000Y-104800000D02*
X138950000Y-109950000D01*
X138950000Y-109950000D02*
X138955000Y-109945000D01*
X133800000Y-104450000D02*
X133800000Y-104800000D01*
X134350000Y-103500000D02*
X134400000Y-103500000D01*
X135050000Y-105100000D02*
X139245000Y-109295000D01*
X134400000Y-103500000D02*
X135050000Y-104150000D01*
X135050000Y-104150000D02*
X135050000Y-105100000D01*
X134350000Y-103450000D02*
X134350000Y-103500000D01*
X134350000Y-103450000D02*
X134350000Y-103450000D01*
X139245000Y-109295000D02*
X140845000Y-109295000D01*
X133170000Y-100370000D02*
X133150000Y-100350000D01*
X134382500Y-100370000D02*
X133170000Y-100370000D01*
X139645000Y-108645000D02*
X140845000Y-108645000D01*
X135735078Y-99870000D02*
X137550000Y-101684922D01*
X137550000Y-101684922D02*
X137550000Y-106550000D01*
X134382500Y-99870000D02*
X135735078Y-99870000D01*
X137550000Y-106550000D02*
X139645000Y-108645000D01*
X137900000Y-106100000D02*
X139795000Y-107995000D01*
X134382500Y-99370000D02*
X135730052Y-99370000D01*
X139795000Y-107995000D02*
X140845000Y-107995000D01*
X135730052Y-99370000D02*
X137900000Y-101539948D01*
X137900000Y-101539948D02*
X137900000Y-106100000D01*
X138250000Y-101394974D02*
X138250000Y-102494975D01*
X135725026Y-98870000D02*
X138250000Y-101394974D01*
X138250000Y-102494975D02*
X139150000Y-103394974D01*
X139150000Y-103394974D02*
X139150000Y-105950000D01*
X139150000Y-105950000D02*
X139895000Y-106695000D01*
X134382500Y-98870000D02*
X135725026Y-98870000D01*
X139895000Y-106695000D02*
X140845000Y-106695000D01*
X140845000Y-103095000D02*
X140145000Y-103095000D01*
X138600000Y-101250000D02*
X135720000Y-98370000D01*
X140140000Y-103100000D02*
X139350000Y-103100000D01*
X140145000Y-103095000D02*
X140140000Y-103100000D01*
X138600000Y-102350000D02*
X138600000Y-101250000D01*
X139350000Y-103100000D02*
X138600000Y-102350000D01*
X135720000Y-98370000D02*
X134382500Y-98370000D01*
X139445000Y-102445000D02*
X138950000Y-101950000D01*
X138950000Y-101950000D02*
X138950000Y-101000000D01*
X135820000Y-97870000D02*
X134382500Y-97870000D01*
X138950000Y-101000000D02*
X135820000Y-97870000D01*
X140845000Y-102445000D02*
X139445000Y-102445000D01*
X140045000Y-101795000D02*
X139400000Y-101150000D01*
X139400000Y-100900000D02*
X135870000Y-97370000D01*
X135870000Y-97370000D02*
X134382500Y-97370000D01*
X139400000Y-101150000D02*
X139400000Y-100900000D01*
X140845000Y-101795000D02*
X140045000Y-101795000D01*
X139895000Y-101145000D02*
X140845000Y-101145000D01*
X134382500Y-96370000D02*
X135452170Y-96370000D01*
X135452170Y-96370000D02*
X139750000Y-100667830D01*
X139750000Y-101000000D02*
X139895000Y-101145000D01*
X139750000Y-100667830D02*
X139750000Y-101000000D01*
X135470000Y-95892856D02*
X140072144Y-100495000D01*
X135470000Y-95870000D02*
X135470000Y-95892856D01*
X140072144Y-100495000D02*
X140845000Y-100495000D01*
X134382500Y-95870000D02*
X135470000Y-95870000D01*
X131800000Y-95850000D02*
X132000000Y-95850000D01*
X140845000Y-99845000D02*
X140227170Y-99845000D01*
X138600000Y-98217830D02*
X138600000Y-98150000D01*
X131457500Y-92945000D02*
X131457500Y-95507500D01*
X131457500Y-95507500D02*
X131800000Y-95850000D01*
X140227170Y-99845000D02*
X138600000Y-98217830D01*
X132000000Y-95850000D02*
X131950000Y-95800000D01*
X138850000Y-97450000D02*
X138050000Y-97450000D01*
X140145000Y-99195000D02*
X139150000Y-98200000D01*
X131957500Y-92945000D02*
X131957500Y-94757500D01*
X139150000Y-98200000D02*
X139150000Y-97750000D01*
X139150000Y-97750000D02*
X138850000Y-97450000D01*
X140845000Y-99195000D02*
X140145000Y-99195000D01*
X131957500Y-94757500D02*
X132200000Y-95000000D01*
X139500000Y-97600000D02*
X138700000Y-96800000D01*
X132457500Y-94100000D02*
X132550000Y-94192500D01*
X132457500Y-92937500D02*
X132457500Y-94100000D01*
X139795000Y-97895000D02*
X139500000Y-97600000D01*
X140845000Y-97895000D02*
X139795000Y-97895000D01*
X138700000Y-96800000D02*
X138650000Y-96800000D01*
X143695000Y-112545000D02*
X143700000Y-112550000D01*
X143700000Y-103750000D02*
X143700000Y-96250000D01*
X134950000Y-92750000D02*
X136100000Y-92750000D01*
X126700000Y-99550000D02*
X129525000Y-96725000D01*
X140840000Y-94950000D02*
X140845000Y-94945000D01*
X139400000Y-94950000D02*
X140840000Y-94950000D01*
X133150000Y-95377818D02*
X133150000Y-94550000D01*
X143700000Y-96250000D02*
X142395000Y-94945000D01*
X142505000Y-121345000D02*
X143700000Y-120150000D01*
X131802818Y-96725000D02*
X133150000Y-95377818D01*
X143695000Y-103745000D02*
X143700000Y-103750000D01*
X124170000Y-100870000D02*
X124300000Y-101000000D01*
X129525000Y-96725000D02*
X131802818Y-96725000D01*
X143700000Y-120150000D02*
X143700000Y-112550000D01*
X143700000Y-112550000D02*
X143700000Y-103750000D01*
X142395000Y-94945000D02*
X140845000Y-94945000D01*
X133150000Y-94550000D02*
X134950000Y-92750000D01*
X140845000Y-112545000D02*
X143695000Y-112545000D01*
X140845000Y-103745000D02*
X143695000Y-103745000D01*
X123032500Y-100870000D02*
X124170000Y-100870000D01*
X140845000Y-121345000D02*
X142505000Y-121345000D01*
D47*
X138745000Y-127368000D02*
X138745000Y-125057500D01*
X138745000Y-125057500D02*
X138687500Y-125000000D01*
D49*
X120850000Y-106800000D02*
X120850000Y-114100000D01*
X135200000Y-114800000D02*
X136850000Y-116450000D01*
X136850000Y-124812500D02*
X137037500Y-125000000D01*
X136850000Y-116450000D02*
X136850000Y-124812500D01*
X125150000Y-102500000D02*
X120850000Y-106800000D01*
X125150000Y-100800000D02*
X125150000Y-102500000D01*
X124720000Y-100370000D02*
X125150000Y-100800000D01*
X120850000Y-114100000D02*
X121550000Y-114800000D01*
X121550000Y-114800000D02*
X135200000Y-114800000D01*
X123032500Y-100370000D02*
X124720000Y-100370000D01*
D47*
X127950000Y-125037500D02*
X127912500Y-125000000D01*
X127950000Y-127368000D02*
X127950000Y-125037500D01*
D49*
X127200000Y-123100000D02*
X126262500Y-124037500D01*
X134382500Y-96870000D02*
X132630000Y-96870000D01*
X132630000Y-96870000D02*
X129850000Y-99650000D01*
X128800000Y-100700000D02*
X128800000Y-102150000D01*
X128800000Y-102150000D02*
X128800000Y-102550000D01*
X126262500Y-124037500D02*
X126262500Y-125000000D01*
X127200000Y-117400000D02*
X127200000Y-123100000D01*
X129850000Y-99650000D02*
X128800000Y-100700000D01*
G04 #@! TA.AperFunction,Conductor*
G36*
X138315677Y-78019685D02*
G01*
X138336319Y-78036319D01*
X138463681Y-78163681D01*
X138497166Y-78225004D01*
X138500000Y-78251362D01*
X138500000Y-78998996D01*
X138480315Y-79066035D01*
X138474377Y-79074481D01*
X138447301Y-79109767D01*
X138389313Y-79249763D01*
X138389313Y-79249764D01*
X138369534Y-79399999D01*
X138369534Y-79400001D01*
X138371169Y-79412424D01*
X138360400Y-79481459D01*
X138354558Y-79492401D01*
X138200000Y-79749999D01*
X138200000Y-79750000D01*
X138200000Y-81300000D01*
X138350000Y-81450000D01*
X139100000Y-81450000D01*
X139250000Y-81300000D01*
X139250000Y-79956352D01*
X139269685Y-79889313D01*
X139298510Y-79857980D01*
X139360451Y-79810451D01*
X139452698Y-79690233D01*
X139458367Y-79676546D01*
X139502207Y-79622145D01*
X139568501Y-79600079D01*
X139572928Y-79600000D01*
X139865655Y-79600000D01*
X139929451Y-79617670D01*
X139936909Y-79622145D01*
X140089797Y-79713878D01*
X140137156Y-79765249D01*
X140150000Y-79820207D01*
X140150000Y-81548637D01*
X140130315Y-81615676D01*
X140113682Y-81636317D01*
X140036317Y-81713682D01*
X139974997Y-81747166D01*
X139948638Y-81750000D01*
X137501362Y-81750000D01*
X137434323Y-81730315D01*
X137413681Y-81713681D01*
X137337087Y-81637087D01*
X137303602Y-81575764D01*
X137300782Y-81547561D01*
X137349249Y-78300272D01*
X137369932Y-78233537D01*
X137385549Y-78214450D01*
X137563680Y-78036319D01*
X137625004Y-78002834D01*
X137651362Y-78000000D01*
X138248638Y-78000000D01*
X138315677Y-78019685D01*
G37*
G04 #@! TD.AperFunction*
G04 #@! TA.AperFunction,Conductor*
G36*
X140080536Y-81959334D02*
G01*
X140427314Y-82116961D01*
X140480196Y-82162620D01*
X140500000Y-82229624D01*
X140500000Y-86048638D01*
X140480315Y-86115677D01*
X140463681Y-86136319D01*
X140386319Y-86213681D01*
X140324996Y-86247166D01*
X140298638Y-86250000D01*
X139041333Y-86250000D01*
X138974294Y-86230315D01*
X138966933Y-86225200D01*
X138951574Y-86213681D01*
X138849600Y-86137200D01*
X138807779Y-86081229D01*
X138800000Y-86038000D01*
X138800000Y-84086109D01*
X138819386Y-84019536D01*
X139150000Y-83500000D01*
X139150000Y-82151362D01*
X139169685Y-82084323D01*
X139186318Y-82063682D01*
X139194318Y-82055682D01*
X139237876Y-82012123D01*
X139299197Y-81978639D01*
X139368888Y-81983623D01*
X139373008Y-81985244D01*
X139461970Y-82022092D01*
X139493238Y-82035044D01*
X139571618Y-82045363D01*
X139649999Y-82055682D01*
X139650000Y-82055682D01*
X139650001Y-82055682D01*
X139702253Y-82048802D01*
X139806762Y-82035044D01*
X139952841Y-81974536D01*
X139953732Y-81973851D01*
X139954619Y-81973508D01*
X139959885Y-81970469D01*
X139960358Y-81971289D01*
X140018899Y-81948652D01*
X140080536Y-81959334D01*
G37*
G04 #@! TD.AperFunction*
M02*
